<svg width="602" height="438" viewBox="0 0 602 438" fill="none" xmlns="http://www.w3.org/2000/svg">
<mask id="path-1-outside-1" maskUnits="userSpaceOnUse" x="-0.258423" y="142.886" width="239.343" height="240.757" fill="black">
<rect fill="white" x="-0.258423" y="142.886" width="239.343" height="240.757"/>
<path d="M200.081 314.316C196.931 304.252 186.192 275.514 185.536 273.764C184.532 270.797 182.464 268.444 179.639 267.237C176.661 265.764 173.079 265.704 169.846 266.862C163.379 269.176 159.732 276.07 161.894 282.271L163.8 291.102L145.641 277.466L135.81 226.034L146.502 235.645C152.092 241.641 161.256 241.848 167.252 236.258C170.193 233.673 171.891 229.855 172.007 226.064C172.18 222.062 170.715 218.296 168.13 215.355C166.579 213.59 139.905 183.056 130.277 172.83C118.161 160.139 99.8663 154.562 81.4209 157.94C66.7822 160.539 54.0538 168.597 45.4765 180.466C36.8993 192.335 33.4398 206.925 35.4093 221.395L46.4718 284.176C47.584 290.096 51.8325 294.382 57.2876 295.844C59.3857 296.406 61.3864 296.493 63.7094 296.216C66.7743 295.688 69.3784 294.361 71.2557 292.391L72.7012 300.424C73.424 304.44 75.4769 307.689 78.9162 309.96C80.4261 311.039 81.8385 311.642 83.517 312.092C85.4053 312.598 87.1963 312.628 89.2532 312.505L91.5461 314.019C89.7401 314.884 88.0877 316.015 86.7425 317.679C84.4305 320.432 83.5872 323.58 84.0028 327.064C84.4746 330.339 86.0106 332.999 88.6668 334.835L127.908 363.79C132.074 366.705 136.675 368.837 141.29 370.074C158.705 374.74 178.511 368.803 190.827 353.889C200.72 342.147 204.026 327.292 200.081 314.316ZM82.6447 304.437C80.9251 303.302 79.6401 301.384 79.3068 299.27L75.7903 279.664C75.8465 279.454 75.6929 279.188 75.6929 279.188L68.1731 237.595C67.7836 235.691 66.0639 234.556 64.3704 235.002C62.467 235.391 61.3316 237.111 61.7773 238.804L69.2972 280.397C70.1173 284.89 67.202 289.056 62.7096 289.876C58.2172 290.696 54.0511 287.781 53.2309 283.288L41.9587 220.451C38.0868 193.778 55.8859 169.313 82.3645 164.49C98.6405 161.655 114.684 166.403 125.402 177.596C135.086 187.611 162.948 219.588 163.102 219.854C164.709 221.409 165.252 223.579 165.319 225.846C165.177 228.056 164.195 230.042 162.64 231.649C161.085 233.256 158.915 233.799 156.649 233.867C154.438 233.724 152.452 232.742 150.845 231.187C150.845 231.187 150.635 231.131 150.692 230.921L130.97 213.044C130.09 212.133 128.775 212.006 127.557 212.354C113.825 217.445 95.5452 210.973 88.4799 198.735C87.5584 197.139 85.4603 196.577 83.8641 197.498C82.2679 198.42 81.7057 200.518 82.6273 202.114C90.9213 216.48 110.921 224.088 127.437 219.518L137.099 271.58L130.711 266.045C127.538 263.621 123.593 263.238 119.73 264.227L115.49 240.604C115.101 238.7 113.381 237.565 111.688 238.01C109.784 238.4 108.649 240.12 109.095 241.813L113.821 267.816C113.555 267.969 113.498 268.179 113.176 268.543C111.831 270.206 110.905 271.982 110.553 274.136L107.743 272.034C104.723 269.876 101.1 269.13 97.5034 269.965L94.515 253.423C94.1255 251.52 92.4058 250.384 90.7123 250.83C88.8089 251.219 87.6735 252.939 88.1192 254.633L91.4409 273.288C91.1187 273.651 90.7965 274.015 90.418 274.588C88.106 277.342 87.2627 280.489 87.6783 283.973C88.109 286.562 89.2815 288.9 91.0423 290.721C89.2363 291.587 87.5839 292.718 86.2387 294.382C83.9267 297.135 83.0834 300.282 83.499 303.767C83.5964 304.243 83.6938 304.719 83.7911 305.194C83.2179 304.816 83.0643 304.55 82.6447 304.437ZM185.893 349.643C172.287 366.011 148.51 369.985 131.79 358.533L92.5489 329.579C91.4025 328.822 90.8443 327.548 90.5522 326.12C90.2601 324.693 90.9196 323.071 91.9426 321.771C93.9885 319.171 97.9489 318.658 100.395 320.438L126.467 339.792C127.977 340.871 130.09 340.538 131.169 339.028C132.249 337.518 131.915 335.405 130.405 334.326L104.277 315.181L103.914 314.859C103.914 314.859 91.1647 305.371 90.8013 305.049C90.0745 304.404 89.8797 303.453 89.685 302.501C89.3929 301.073 90.0524 299.451 91.0754 298.151C92.1546 296.641 93.9043 295.986 95.5417 295.75C96.913 295.668 125.6 316.172 125.6 316.172C127.11 317.251 129.223 316.918 130.302 315.408C131.381 313.898 131.048 311.785 129.538 310.706L95.9172 285.956C94.7708 285.199 94.2126 283.925 93.9205 282.498C93.6284 281.07 94.2879 279.448 95.3109 278.148C96.2777 277.058 97.3418 276.443 98.6157 275.885C100.309 275.439 102.31 275.526 103.82 276.605L142.851 305.503C144.361 306.582 146.474 306.249 147.553 304.739C148.632 303.229 148.299 301.116 146.789 300.037L119.417 279.66C118.117 278.637 117.349 277.307 117.267 275.935C116.975 274.508 117.578 273.095 118.335 271.949C119.036 271.012 120.1 270.398 121.108 269.993C123.124 269.184 125.334 269.327 126.788 270.616L166.838 301.586C167.984 302.343 169.509 302.527 170.629 301.702C171.75 300.878 172.353 299.466 172.005 298.248C172.005 298.248 167.829 280.263 167.885 280.054C166.881 277.086 168.62 273.954 171.853 272.797C173.337 272.295 175.128 272.325 176.54 272.928C177.743 273.475 178.567 274.596 179.125 275.869C179.279 276.135 190.367 306.092 193.517 316.156C197.128 327.018 194.231 339.509 185.893 349.643Z"/>
</mask>
<path d="M200.081 314.316C196.931 304.252 186.192 275.514 185.536 273.764C184.532 270.797 182.464 268.444 179.639 267.237C176.661 265.764 173.079 265.704 169.846 266.862C163.379 269.176 159.732 276.07 161.894 282.271L163.8 291.102L145.641 277.466L135.81 226.034L146.502 235.645C152.092 241.641 161.256 241.848 167.252 236.258C170.193 233.673 171.891 229.855 172.007 226.064C172.18 222.062 170.715 218.296 168.13 215.355C166.579 213.59 139.905 183.056 130.277 172.83C118.161 160.139 99.8663 154.562 81.4209 157.94C66.7822 160.539 54.0538 168.597 45.4765 180.466C36.8993 192.335 33.4398 206.925 35.4093 221.395L46.4718 284.176C47.584 290.096 51.8325 294.382 57.2876 295.844C59.3857 296.406 61.3864 296.493 63.7094 296.216C66.7743 295.688 69.3784 294.361 71.2557 292.391L72.7012 300.424C73.424 304.44 75.4769 307.689 78.9162 309.96C80.4261 311.039 81.8385 311.642 83.517 312.092C85.4053 312.598 87.1963 312.628 89.2532 312.505L91.5461 314.019C89.7401 314.884 88.0877 316.015 86.7425 317.679C84.4305 320.432 83.5872 323.58 84.0028 327.064C84.4746 330.339 86.0106 332.999 88.6668 334.835L127.908 363.79C132.074 366.705 136.675 368.837 141.29 370.074C158.705 374.74 178.511 368.803 190.827 353.889C200.72 342.147 204.026 327.292 200.081 314.316ZM82.6447 304.437C80.9251 303.302 79.6401 301.384 79.3068 299.27L75.7903 279.664C75.8465 279.454 75.6929 279.188 75.6929 279.188L68.1731 237.595C67.7836 235.691 66.0639 234.556 64.3704 235.002C62.467 235.391 61.3316 237.111 61.7773 238.804L69.2972 280.397C70.1173 284.89 67.202 289.056 62.7096 289.876C58.2172 290.696 54.0511 287.781 53.2309 283.288L41.9587 220.451C38.0868 193.778 55.8859 169.313 82.3645 164.49C98.6405 161.655 114.684 166.403 125.402 177.596C135.086 187.611 162.948 219.588 163.102 219.854C164.709 221.409 165.252 223.579 165.319 225.846C165.177 228.056 164.195 230.042 162.64 231.649C161.085 233.256 158.915 233.799 156.649 233.867C154.438 233.724 152.452 232.742 150.845 231.187C150.845 231.187 150.635 231.131 150.692 230.921L130.97 213.044C130.09 212.133 128.775 212.006 127.557 212.354C113.825 217.445 95.5452 210.973 88.4799 198.735C87.5584 197.139 85.4603 196.577 83.8641 197.498C82.2679 198.42 81.7057 200.518 82.6273 202.114C90.9213 216.48 110.921 224.088 127.437 219.518L137.099 271.58L130.711 266.045C127.538 263.621 123.593 263.238 119.73 264.227L115.49 240.604C115.101 238.7 113.381 237.565 111.688 238.01C109.784 238.4 108.649 240.12 109.095 241.813L113.821 267.816C113.555 267.969 113.498 268.179 113.176 268.543C111.831 270.206 110.905 271.982 110.553 274.136L107.743 272.034C104.723 269.876 101.1 269.13 97.5034 269.965L94.515 253.423C94.1255 251.52 92.4058 250.384 90.7123 250.83C88.8089 251.219 87.6735 252.939 88.1192 254.633L91.4409 273.288C91.1187 273.651 90.7965 274.015 90.418 274.588C88.106 277.342 87.2627 280.489 87.6783 283.973C88.109 286.562 89.2815 288.9 91.0423 290.721C89.2363 291.587 87.5839 292.718 86.2387 294.382C83.9267 297.135 83.0834 300.282 83.499 303.767C83.5964 304.243 83.6938 304.719 83.7911 305.194C83.2179 304.816 83.0643 304.55 82.6447 304.437ZM185.893 349.643C172.287 366.011 148.51 369.985 131.79 358.533L92.5489 329.579C91.4025 328.822 90.8443 327.548 90.5522 326.12C90.2601 324.693 90.9196 323.071 91.9426 321.771C93.9885 319.171 97.9489 318.658 100.395 320.438L126.467 339.792C127.977 340.871 130.09 340.538 131.169 339.028C132.249 337.518 131.915 335.405 130.405 334.326L104.277 315.181L103.914 314.859C103.914 314.859 91.1647 305.371 90.8013 305.049C90.0745 304.404 89.8797 303.453 89.685 302.501C89.3929 301.073 90.0524 299.451 91.0754 298.151C92.1546 296.641 93.9043 295.986 95.5417 295.75C96.913 295.668 125.6 316.172 125.6 316.172C127.11 317.251 129.223 316.918 130.302 315.408C131.381 313.898 131.048 311.785 129.538 310.706L95.9172 285.956C94.7708 285.199 94.2126 283.925 93.9205 282.498C93.6284 281.07 94.2879 279.448 95.3109 278.148C96.2777 277.058 97.3418 276.443 98.6157 275.885C100.309 275.439 102.31 275.526 103.82 276.605L142.851 305.503C144.361 306.582 146.474 306.249 147.553 304.739C148.632 303.229 148.299 301.116 146.789 300.037L119.417 279.66C118.117 278.637 117.349 277.307 117.267 275.935C116.975 274.508 117.578 273.095 118.335 271.949C119.036 271.012 120.1 270.398 121.108 269.993C123.124 269.184 125.334 269.327 126.788 270.616L166.838 301.586C167.984 302.343 169.509 302.527 170.629 301.702C171.75 300.878 172.353 299.466 172.005 298.248C172.005 298.248 167.829 280.263 167.885 280.054C166.881 277.086 168.62 273.954 171.853 272.797C173.337 272.295 175.128 272.325 176.54 272.928C177.743 273.475 178.567 274.596 179.125 275.869C179.279 276.135 190.367 306.092 193.517 316.156C197.128 327.018 194.231 339.509 185.893 349.643Z" fill="#11CACA"/>
<path d="M200.081 314.316C196.931 304.252 186.192 275.514 185.536 273.764C184.532 270.797 182.464 268.444 179.639 267.237C176.661 265.764 173.079 265.704 169.846 266.862C163.379 269.176 159.732 276.07 161.894 282.271L163.8 291.102L145.641 277.466L135.81 226.034L146.502 235.645C152.092 241.641 161.256 241.848 167.252 236.258C170.193 233.673 171.891 229.855 172.007 226.064C172.18 222.062 170.715 218.296 168.13 215.355C166.579 213.59 139.905 183.056 130.277 172.83C118.161 160.139 99.8663 154.562 81.4209 157.94C66.7822 160.539 54.0538 168.597 45.4765 180.466C36.8993 192.335 33.4398 206.925 35.4093 221.395L46.4718 284.176C47.584 290.096 51.8325 294.382 57.2876 295.844C59.3857 296.406 61.3864 296.493 63.7094 296.216C66.7743 295.688 69.3784 294.361 71.2557 292.391L72.7012 300.424C73.424 304.44 75.4769 307.689 78.9162 309.96C80.4261 311.039 81.8385 311.642 83.517 312.092C85.4053 312.598 87.1963 312.628 89.2532 312.505L91.5461 314.019C89.7401 314.884 88.0877 316.015 86.7425 317.679C84.4305 320.432 83.5872 323.58 84.0028 327.064C84.4746 330.339 86.0106 332.999 88.6668 334.835L127.908 363.79C132.074 366.705 136.675 368.837 141.29 370.074C158.705 374.74 178.511 368.803 190.827 353.889C200.72 342.147 204.026 327.292 200.081 314.316ZM82.6447 304.437C80.9251 303.302 79.6401 301.384 79.3068 299.27L75.7903 279.664C75.8465 279.454 75.6929 279.188 75.6929 279.188L68.1731 237.595C67.7836 235.691 66.0639 234.556 64.3704 235.002C62.467 235.391 61.3316 237.111 61.7773 238.804L69.2972 280.397C70.1173 284.89 67.202 289.056 62.7096 289.876C58.2172 290.696 54.0511 287.781 53.2309 283.288L41.9587 220.451C38.0868 193.778 55.8859 169.313 82.3645 164.49C98.6405 161.655 114.684 166.403 125.402 177.596C135.086 187.611 162.948 219.588 163.102 219.854C164.709 221.409 165.252 223.579 165.319 225.846C165.177 228.056 164.195 230.042 162.64 231.649C161.085 233.256 158.915 233.799 156.649 233.867C154.438 233.724 152.452 232.742 150.845 231.187C150.845 231.187 150.635 231.131 150.692 230.921L130.97 213.044C130.09 212.133 128.775 212.006 127.557 212.354C113.825 217.445 95.5452 210.973 88.4799 198.735C87.5584 197.139 85.4603 196.577 83.8641 197.498C82.2679 198.42 81.7057 200.518 82.6273 202.114C90.9213 216.48 110.921 224.088 127.437 219.518L137.099 271.58L130.711 266.045C127.538 263.621 123.593 263.238 119.73 264.227L115.49 240.604C115.101 238.7 113.381 237.565 111.688 238.01C109.784 238.4 108.649 240.12 109.095 241.813L113.821 267.816C113.555 267.969 113.498 268.179 113.176 268.543C111.831 270.206 110.905 271.982 110.553 274.136L107.743 272.034C104.723 269.876 101.1 269.13 97.5034 269.965L94.515 253.423C94.1255 251.52 92.4058 250.384 90.7123 250.83C88.8089 251.219 87.6735 252.939 88.1192 254.633L91.4409 273.288C91.1187 273.651 90.7965 274.015 90.418 274.588C88.106 277.342 87.2627 280.489 87.6783 283.973C88.109 286.562 89.2815 288.9 91.0423 290.721C89.2363 291.587 87.5839 292.718 86.2387 294.382C83.9267 297.135 83.0834 300.282 83.499 303.767C83.5964 304.243 83.6938 304.719 83.7911 305.194C83.2179 304.816 83.0643 304.55 82.6447 304.437ZM185.893 349.643C172.287 366.011 148.51 369.985 131.79 358.533L92.5489 329.579C91.4025 328.822 90.8443 327.548 90.5522 326.12C90.2601 324.693 90.9196 323.071 91.9426 321.771C93.9885 319.171 97.9489 318.658 100.395 320.438L126.467 339.792C127.977 340.871 130.09 340.538 131.169 339.028C132.249 337.518 131.915 335.405 130.405 334.326L104.277 315.181L103.914 314.859C103.914 314.859 91.1647 305.371 90.8013 305.049C90.0745 304.404 89.8797 303.453 89.685 302.501C89.3929 301.073 90.0524 299.451 91.0754 298.151C92.1546 296.641 93.9043 295.986 95.5417 295.75C96.913 295.668 125.6 316.172 125.6 316.172C127.11 317.251 129.223 316.918 130.302 315.408C131.381 313.898 131.048 311.785 129.538 310.706L95.9172 285.956C94.7708 285.199 94.2126 283.925 93.9205 282.498C93.6284 281.07 94.2879 279.448 95.3109 278.148C96.2777 277.058 97.3418 276.443 98.6157 275.885C100.309 275.439 102.31 275.526 103.82 276.605L142.851 305.503C144.361 306.582 146.474 306.249 147.553 304.739C148.632 303.229 148.299 301.116 146.789 300.037L119.417 279.66C118.117 278.637 117.349 277.307 117.267 275.935C116.975 274.508 117.578 273.095 118.335 271.949C119.036 271.012 120.1 270.398 121.108 269.993C123.124 269.184 125.334 269.327 126.788 270.616L166.838 301.586C167.984 302.343 169.509 302.527 170.629 301.702C171.75 300.878 172.353 299.466 172.005 298.248C172.005 298.248 167.829 280.263 167.885 280.054C166.881 277.086 168.62 273.954 171.853 272.797C173.337 272.295 175.128 272.325 176.54 272.928C177.743 273.475 178.567 274.596 179.125 275.869C179.279 276.135 190.367 306.092 193.517 316.156C197.128 327.018 194.231 339.509 185.893 349.643Z" stroke="#11CACA" mask="url(#path-1-outside-1)"/>
<path d="M211.834 205.459C221.632 196.443 251.518 171.798 253.34 170.298C256.311 167.687 260.058 166.42 263.908 166.884C268.095 167.154 272.05 169.349 274.855 172.656C280.465 179.27 280.1 189.11 273.822 194.526L266.162 202.98L294.627 199.533L337.847 149.5L320.087 153.259C310.19 156.286 300.039 150.727 297.012 140.83C295.427 136.146 295.981 130.9 298.248 126.68C300.585 122.195 304.564 119.003 309.247 117.418C312.058 116.467 360.502 99.9187 377.486 94.8157C398.746 88.5871 422.272 94.039 440.309 109.378C454.675 121.461 463.506 138.308 465.392 156.702C467.278 175.095 461.85 193.232 450.561 207.811L398.83 269.477C393.877 275.248 386.525 277.253 379.637 275.408C376.988 274.698 374.746 273.529 372.38 271.76C369.362 269.247 367.352 266.153 366.543 262.813L359.891 270.685C356.565 274.62 352.269 276.877 347.075 277.188C344.743 277.415 342.817 277.183 340.698 276.615C338.314 275.977 336.336 274.879 334.165 273.445L330.702 273.653C332.131 275.74 333.223 278.02 333.644 280.688C334.434 285.159 333.369 289.132 330.715 292.68C328.131 295.963 324.772 297.902 320.709 298.233L259.521 305.121C253.125 305.678 246.748 305.105 240.919 303.544C218.931 297.652 201.022 278.657 196.97 254.572C193.566 235.488 199.329 217.157 211.834 205.459ZM346.484 268.796C349.082 268.64 351.698 267.354 353.396 265.253L369.62 246.034C369.691 245.769 370.027 245.575 370.027 245.575L404.508 204.841C406.135 203.006 408.733 202.85 410.303 204.406C412.138 206.034 412.294 208.631 410.738 210.202L376.257 250.935C372.524 255.33 373.081 261.726 377.476 265.459C381.87 269.192 388.266 268.634 391.999 264.239L443.996 202.645C465.069 175.923 461.051 137.934 435.142 115.943C419.135 102.568 398.594 97.6323 379.808 103.104C362.895 107.942 312.241 125.319 311.905 125.513C309.166 126.198 307.203 128.228 305.698 130.664C304.459 133.171 304.279 135.962 304.964 138.701C305.65 141.441 307.679 143.404 310.116 144.909C312.623 146.148 315.414 146.328 318.153 145.643C318.153 145.643 318.418 145.714 318.489 145.449L351.34 138.351C352.877 137.911 354.396 138.602 355.508 139.751C367.31 153.987 391.384 158.45 406.835 149.529C408.851 148.366 411.5 149.076 412.664 151.091C413.827 153.106 413.117 155.756 411.102 156.919C392.963 167.392 366.292 163.084 351.117 147.661L307.684 198.489L318.163 196.47C323.163 195.822 327.719 197.895 331.319 201.415L350.868 178.259C352.496 176.424 355.093 176.268 356.663 177.824C358.499 179.452 358.655 182.049 357.098 183.62L335.514 209.069C335.708 209.405 335.637 209.67 335.76 210.271C336.181 212.939 336.072 215.465 335.097 218.043L339.497 217.519C344.161 217.065 348.594 218.537 352 221.721L365.711 205.519C367.338 203.684 369.936 203.528 371.506 205.084C373.341 206.712 373.497 209.309 371.941 210.88L356.531 229.182C356.654 229.782 356.777 230.383 356.829 231.249C357.619 235.72 356.554 239.693 353.9 243.241C351.794 245.8 349.036 247.617 345.961 248.496C347.39 250.583 348.482 252.863 348.903 255.531C349.693 260.002 348.628 263.976 345.974 267.523C345.567 267.982 345.16 268.441 344.753 268.9C345.619 268.848 345.955 268.654 346.484 268.796ZM205.046 253.045C209.59 279.533 233.081 298.888 258.594 296.922L319.782 290.035C321.514 289.931 322.928 288.89 324.149 287.514C325.37 286.137 325.673 283.947 325.375 281.879C324.779 277.745 320.772 274.684 316.973 275.085L276.246 279.789C273.914 280.016 271.813 278.317 271.586 275.985C271.36 273.653 273.058 271.552 275.39 271.326L316.047 266.887L316.648 266.764C316.648 266.764 336.579 264.438 337.179 264.315C338.381 264.069 339.195 263.152 340.009 262.234C341.229 260.857 341.532 258.667 341.234 256.6C341.007 254.267 339.508 252.446 337.866 251.154C336.419 250.199 292.106 254.509 292.106 254.509C289.773 254.736 287.673 253.038 287.446 250.705C287.219 248.373 288.918 246.273 291.25 246.046L343.639 240.208C345.37 240.104 346.785 239.063 348.006 237.687C349.226 236.31 349.529 234.12 349.231 232.052C348.863 230.25 348.087 228.906 347.046 227.492C345.476 225.935 343.233 224.767 340.901 224.993L279.978 231.952C277.646 232.179 275.545 230.48 275.318 228.148C275.092 225.816 276.79 223.715 279.122 223.489L321.917 218.487C323.985 218.189 325.664 217.22 326.62 215.772C327.84 214.395 328.072 212.47 327.968 210.739C327.794 209.272 327.018 207.928 326.171 206.85C324.478 204.692 321.971 203.453 319.567 203.945L256.222 212.525C254.49 212.629 252.707 211.868 252.002 210.259C251.297 208.65 251.529 206.725 252.679 205.613C252.679 205.613 268.599 188.584 268.67 188.319C271.642 185.708 271.718 181.185 268.913 177.878C267.607 176.393 265.63 175.295 263.704 175.063C262.044 174.902 260.435 175.607 259.021 176.648C258.685 176.842 227.649 202.598 217.851 211.614C207.045 221.212 202.327 236.7 205.046 253.045Z" fill="#FFE500"/>
<mask id="path-3-outside-2" maskUnits="userSpaceOnUse" x="140.279" y="21.6899" width="161.925" height="162.632" fill="black">
<rect fill="white" x="140.279" y="21.6899" width="161.925" height="162.632"/>
<path d="M284.983 100.416C279.776 105.207 263.894 118.303 262.926 119.1C261.347 120.488 259.356 121.161 257.31 120.915C255.085 120.771 252.983 119.605 251.492 117.847C248.511 114.333 248.705 109.103 252.041 106.225L256.112 101.733L240.985 103.564L218.017 130.153L227.455 128.155C232.715 126.547 238.109 129.501 239.718 134.761C240.56 137.249 240.265 140.037 239.061 142.28C237.819 144.663 235.705 146.36 233.216 147.202C231.722 147.707 205.978 156.501 196.953 159.213C185.654 162.523 173.153 159.626 163.567 151.475C155.933 145.053 151.24 136.1 150.238 126.326C149.236 116.551 152.12 106.913 158.119 99.1654L185.61 66.3952C188.242 63.3283 192.149 62.2627 195.809 63.2435C197.217 63.6207 198.409 64.2418 199.666 65.1821C201.27 66.5172 202.338 68.1615 202.768 69.9364L206.303 65.7534C208.07 63.6619 210.353 62.4629 213.113 62.2972C214.353 62.1767 215.376 62.2999 216.502 62.6017C217.769 62.9412 218.82 63.5245 219.974 64.2864L221.814 64.1759C221.055 63.0672 220.474 61.8554 220.251 60.4375C219.831 58.0617 220.397 55.95 221.808 54.0646C223.18 52.32 224.965 51.2894 227.125 51.1136L259.641 47.4535C263.04 47.1572 266.429 47.4616 269.526 48.2915C281.211 51.4225 290.728 61.517 292.882 74.316C294.691 84.4576 291.628 94.1991 284.983 100.416ZM213.427 66.7571C212.047 66.8399 210.657 67.5236 209.754 68.6398L201.133 78.8534C201.095 78.9942 200.917 79.0972 200.917 79.0972L182.593 100.744C181.728 101.719 180.348 101.802 179.513 100.975C178.538 100.11 178.455 98.7297 179.282 97.8951L197.606 76.2486C199.59 73.9132 199.293 70.5143 196.958 68.5306C194.623 66.5468 191.224 66.8432 189.24 69.1785L161.608 101.911C150.41 116.112 152.545 136.299 166.313 147.985C174.82 155.093 185.735 157.716 195.719 154.808C204.706 152.237 231.625 143.003 231.803 142.9C233.259 142.536 234.302 141.457 235.102 140.163C235.761 138.83 235.856 137.347 235.492 135.891C235.127 134.436 234.049 133.392 232.754 132.593C231.422 131.934 229.939 131.838 228.483 132.203C228.483 132.203 228.342 132.165 228.305 132.306L210.847 136.078C210.03 136.312 209.223 135.945 208.632 135.334C202.36 127.768 189.567 125.397 181.356 130.137C180.285 130.756 178.877 130.378 178.259 129.307C177.64 128.236 178.017 126.829 179.088 126.21C188.728 120.645 202.901 122.934 210.966 131.13L234.046 104.119L228.478 105.192C225.82 105.537 223.4 104.435 221.487 102.565L211.098 114.87C210.233 115.845 208.853 115.928 208.018 115.101C207.043 114.236 206.96 112.856 207.787 112.021L219.257 98.4968C219.154 98.3183 219.192 98.1776 219.126 97.8583C218.903 96.4404 218.961 95.0979 219.479 93.7278L217.141 94.0067C214.662 94.2478 212.306 93.4657 210.496 91.7737L203.21 100.383C202.345 101.359 200.965 101.442 200.13 100.615C199.155 99.7496 199.072 98.3694 199.899 97.5348L208.088 87.8089C208.023 87.4896 207.958 87.1703 207.93 86.7102C207.51 84.3345 208.076 82.2228 209.487 80.3374C210.606 78.9774 212.071 78.0122 213.705 77.5447C212.946 76.436 212.366 75.2241 212.142 73.8062C211.722 71.4305 212.288 69.3188 213.699 67.4334C213.915 67.1895 214.131 66.9457 214.347 66.7019C213.887 66.7295 213.709 66.8325 213.427 66.7571ZM288.59 75.1276C286.175 61.0515 273.692 50.7657 260.134 51.8103L227.617 55.4704C226.697 55.5257 225.945 56.0787 225.297 56.8102C224.648 57.5417 224.487 58.7057 224.645 59.8043C224.962 62.0016 227.091 63.6283 229.11 63.4148L250.753 60.9152C251.993 60.7947 253.109 61.6973 253.229 62.9367C253.35 64.1761 252.447 65.2923 251.208 65.4128L229.602 67.7716L229.283 67.8369C229.283 67.8369 218.691 69.0729 218.372 69.1383C217.734 69.2689 217.301 69.7566 216.869 70.2443C216.22 70.9758 216.059 72.1398 216.217 73.2384C216.338 74.4778 217.135 75.4458 218.007 76.1322C218.776 76.6401 242.325 74.3493 242.325 74.3493C243.564 74.2288 244.681 75.1314 244.801 76.3708C244.922 77.6102 244.019 78.7264 242.78 78.8469L214.939 81.9493C214.019 82.0046 213.268 82.5576 212.619 83.2891C211.97 84.0206 211.809 85.1846 211.967 86.2832C212.164 87.2411 212.576 87.9551 213.129 88.7068C213.963 89.534 215.155 90.155 216.394 90.0345L248.77 86.3366C250.009 86.2161 251.125 87.1187 251.246 88.3581C251.367 89.5975 250.464 90.7137 249.225 90.8342L226.483 93.4921C225.384 93.6504 224.492 94.1657 223.984 94.9349C223.335 95.6664 223.212 96.6896 223.267 97.6098C223.36 98.3891 223.772 99.1031 224.222 99.6763C225.122 100.823 226.454 101.482 227.732 101.22L261.394 96.6602C262.314 96.605 263.262 97.0098 263.637 97.8646C264.011 98.7194 263.888 99.7426 263.277 100.333C263.277 100.333 254.817 109.383 254.779 109.524C253.2 110.911 253.16 113.315 254.65 115.072C255.344 115.862 256.395 116.445 257.418 116.568C258.3 116.654 259.155 116.279 259.907 115.726C260.085 115.623 276.578 101.936 281.785 97.1446C287.528 92.0442 290.035 83.8136 288.59 75.1276Z"/>
</mask>
<path d="M284.983 100.416C279.776 105.207 263.894 118.303 262.926 119.1C261.347 120.488 259.356 121.161 257.31 120.915C255.085 120.771 252.983 119.605 251.492 117.847C248.511 114.333 248.705 109.103 252.041 106.225L256.112 101.733L240.985 103.564L218.017 130.153L227.455 128.155C232.715 126.547 238.109 129.501 239.718 134.761C240.56 137.249 240.265 140.037 239.061 142.28C237.819 144.663 235.705 146.36 233.216 147.202C231.722 147.707 205.978 156.501 196.953 159.213C185.654 162.523 173.153 159.626 163.567 151.475C155.933 145.053 151.24 136.1 150.238 126.326C149.236 116.551 152.12 106.913 158.119 99.1654L185.61 66.3952C188.242 63.3283 192.149 62.2627 195.809 63.2435C197.217 63.6207 198.409 64.2418 199.666 65.1821C201.27 66.5172 202.338 68.1615 202.768 69.9364L206.303 65.7534C208.07 63.6619 210.353 62.4629 213.113 62.2972C214.353 62.1767 215.376 62.2999 216.502 62.6017C217.769 62.9412 218.82 63.5245 219.974 64.2864L221.814 64.1759C221.055 63.0672 220.474 61.8554 220.251 60.4375C219.831 58.0617 220.397 55.95 221.808 54.0646C223.18 52.32 224.965 51.2894 227.125 51.1136L259.641 47.4535C263.04 47.1572 266.429 47.4616 269.526 48.2915C281.211 51.4225 290.728 61.517 292.882 74.316C294.691 84.4576 291.628 94.1991 284.983 100.416ZM213.427 66.7571C212.047 66.8399 210.657 67.5236 209.754 68.6398L201.133 78.8534C201.095 78.9942 200.917 79.0972 200.917 79.0972L182.593 100.744C181.728 101.719 180.348 101.802 179.513 100.975C178.538 100.11 178.455 98.7297 179.282 97.8951L197.606 76.2486C199.59 73.9132 199.293 70.5143 196.958 68.5306C194.623 66.5468 191.224 66.8432 189.24 69.1785L161.608 101.911C150.41 116.112 152.545 136.299 166.313 147.985C174.82 155.093 185.735 157.716 195.719 154.808C204.706 152.237 231.625 143.003 231.803 142.9C233.259 142.536 234.302 141.457 235.102 140.163C235.761 138.83 235.856 137.347 235.492 135.891C235.127 134.436 234.049 133.392 232.754 132.593C231.422 131.934 229.939 131.838 228.483 132.203C228.483 132.203 228.342 132.165 228.305 132.306L210.847 136.078C210.03 136.312 209.223 135.945 208.632 135.334C202.36 127.768 189.567 125.397 181.356 130.137C180.285 130.756 178.877 130.378 178.259 129.307C177.64 128.236 178.017 126.829 179.088 126.21C188.728 120.645 202.901 122.934 210.966 131.13L234.046 104.119L228.478 105.192C225.82 105.537 223.4 104.435 221.487 102.565L211.098 114.87C210.233 115.845 208.853 115.928 208.018 115.101C207.043 114.236 206.96 112.856 207.787 112.021L219.257 98.4968C219.154 98.3183 219.192 98.1776 219.126 97.8583C218.903 96.4404 218.961 95.0979 219.479 93.7278L217.141 94.0067C214.662 94.2478 212.306 93.4657 210.496 91.7737L203.21 100.383C202.345 101.359 200.965 101.442 200.13 100.615C199.155 99.7496 199.072 98.3694 199.899 97.5348L208.088 87.8089C208.023 87.4896 207.958 87.1703 207.93 86.7102C207.51 84.3345 208.076 82.2228 209.487 80.3374C210.606 78.9774 212.071 78.0122 213.705 77.5447C212.946 76.436 212.366 75.2241 212.142 73.8062C211.722 71.4305 212.288 69.3188 213.699 67.4334C213.915 67.1895 214.131 66.9457 214.347 66.7019C213.887 66.7295 213.709 66.8325 213.427 66.7571ZM288.59 75.1276C286.175 61.0515 273.692 50.7657 260.134 51.8103L227.617 55.4704C226.697 55.5257 225.945 56.0787 225.297 56.8102C224.648 57.5417 224.487 58.7057 224.645 59.8043C224.962 62.0016 227.091 63.6283 229.11 63.4148L250.753 60.9152C251.993 60.7947 253.109 61.6973 253.229 62.9367C253.35 64.1761 252.447 65.2923 251.208 65.4128L229.602 67.7716L229.283 67.8369C229.283 67.8369 218.691 69.0729 218.372 69.1383C217.734 69.2689 217.301 69.7566 216.869 70.2443C216.22 70.9758 216.059 72.1398 216.217 73.2384C216.338 74.4778 217.135 75.4458 218.007 76.1322C218.776 76.6401 242.325 74.3493 242.325 74.3493C243.564 74.2288 244.681 75.1314 244.801 76.3708C244.922 77.6102 244.019 78.7264 242.78 78.8469L214.939 81.9493C214.019 82.0046 213.268 82.5576 212.619 83.2891C211.97 84.0206 211.809 85.1846 211.967 86.2832C212.164 87.2411 212.576 87.9551 213.129 88.7068C213.963 89.534 215.155 90.155 216.394 90.0345L248.77 86.3366C250.009 86.2161 251.125 87.1187 251.246 88.3581C251.367 89.5975 250.464 90.7137 249.225 90.8342L226.483 93.4921C225.384 93.6504 224.492 94.1657 223.984 94.9349C223.335 95.6664 223.212 96.6896 223.267 97.6098C223.36 98.3891 223.772 99.1031 224.222 99.6763C225.122 100.823 226.454 101.482 227.732 101.22L261.394 96.6602C262.314 96.605 263.262 97.0098 263.637 97.8646C264.011 98.7194 263.888 99.7426 263.277 100.333C263.277 100.333 254.817 109.383 254.779 109.524C253.2 110.911 253.16 113.315 254.65 115.072C255.344 115.862 256.395 116.445 257.418 116.568C258.3 116.654 259.155 116.279 259.907 115.726C260.085 115.623 276.578 101.936 281.785 97.1446C287.528 92.0442 290.035 83.8136 288.59 75.1276Z" fill="#2420FF"/>
<path d="M284.983 100.416C279.776 105.207 263.894 118.303 262.926 119.1C261.347 120.488 259.356 121.161 257.31 120.915C255.085 120.771 252.983 119.605 251.492 117.847C248.511 114.333 248.705 109.103 252.041 106.225L256.112 101.733L240.985 103.564L218.017 130.153L227.455 128.155C232.715 126.547 238.109 129.501 239.718 134.761C240.56 137.249 240.265 140.037 239.061 142.28C237.819 144.663 235.705 146.36 233.216 147.202C231.722 147.707 205.978 156.501 196.953 159.213C185.654 162.523 173.153 159.626 163.567 151.475C155.933 145.053 151.24 136.1 150.238 126.326C149.236 116.551 152.12 106.913 158.119 99.1654L185.61 66.3952C188.242 63.3283 192.149 62.2627 195.809 63.2435C197.217 63.6207 198.409 64.2418 199.666 65.1821C201.27 66.5172 202.338 68.1615 202.768 69.9364L206.303 65.7534C208.07 63.6619 210.353 62.4629 213.113 62.2972C214.353 62.1767 215.376 62.2999 216.502 62.6017C217.769 62.9412 218.82 63.5245 219.974 64.2864L221.814 64.1759C221.055 63.0672 220.474 61.8554 220.251 60.4375C219.831 58.0617 220.397 55.95 221.808 54.0646C223.18 52.32 224.965 51.2894 227.125 51.1136L259.641 47.4535C263.04 47.1572 266.429 47.4616 269.526 48.2915C281.211 51.4225 290.728 61.517 292.882 74.316C294.691 84.4576 291.628 94.1991 284.983 100.416ZM213.427 66.7571C212.047 66.8399 210.657 67.5236 209.754 68.6398L201.133 78.8534C201.095 78.9942 200.917 79.0972 200.917 79.0972L182.593 100.744C181.728 101.719 180.348 101.802 179.513 100.975C178.538 100.11 178.455 98.7297 179.282 97.8951L197.606 76.2486C199.59 73.9132 199.293 70.5143 196.958 68.5306C194.623 66.5468 191.224 66.8432 189.24 69.1785L161.608 101.911C150.41 116.112 152.545 136.299 166.313 147.985C174.82 155.093 185.735 157.716 195.719 154.808C204.706 152.237 231.625 143.003 231.803 142.9C233.259 142.536 234.302 141.457 235.102 140.163C235.761 138.83 235.856 137.347 235.492 135.891C235.127 134.436 234.049 133.392 232.754 132.593C231.422 131.934 229.939 131.838 228.483 132.203C228.483 132.203 228.342 132.165 228.305 132.306L210.847 136.078C210.03 136.312 209.223 135.945 208.632 135.334C202.36 127.768 189.567 125.397 181.356 130.137C180.285 130.756 178.877 130.378 178.259 129.307C177.64 128.236 178.017 126.829 179.088 126.21C188.728 120.645 202.901 122.934 210.966 131.13L234.046 104.119L228.478 105.192C225.82 105.537 223.4 104.435 221.487 102.565L211.098 114.87C210.233 115.845 208.853 115.928 208.018 115.101C207.043 114.236 206.96 112.856 207.787 112.021L219.257 98.4968C219.154 98.3183 219.192 98.1776 219.126 97.8583C218.903 96.4404 218.961 95.0979 219.479 93.7278L217.141 94.0067C214.662 94.2478 212.306 93.4657 210.496 91.7737L203.21 100.383C202.345 101.359 200.965 101.442 200.13 100.615C199.155 99.7496 199.072 98.3694 199.899 97.5348L208.088 87.8089C208.023 87.4896 207.958 87.1703 207.93 86.7102C207.51 84.3345 208.076 82.2228 209.487 80.3374C210.606 78.9774 212.071 78.0122 213.705 77.5447C212.946 76.436 212.366 75.2241 212.142 73.8062C211.722 71.4305 212.288 69.3188 213.699 67.4334C213.915 67.1895 214.131 66.9457 214.347 66.7019C213.887 66.7295 213.709 66.8325 213.427 66.7571ZM288.59 75.1276C286.175 61.0515 273.692 50.7657 260.134 51.8103L227.617 55.4704C226.697 55.5257 225.945 56.0787 225.297 56.8102C224.648 57.5417 224.487 58.7057 224.645 59.8043C224.962 62.0016 227.091 63.6283 229.11 63.4148L250.753 60.9152C251.993 60.7947 253.109 61.6973 253.229 62.9367C253.35 64.1761 252.447 65.2923 251.208 65.4128L229.602 67.7716L229.283 67.8369C229.283 67.8369 218.691 69.0729 218.372 69.1383C217.734 69.2689 217.301 69.7566 216.869 70.2443C216.22 70.9758 216.059 72.1398 216.217 73.2384C216.338 74.4778 217.135 75.4458 218.007 76.1322C218.776 76.6401 242.325 74.3493 242.325 74.3493C243.564 74.2288 244.681 75.1314 244.801 76.3708C244.922 77.6102 244.019 78.7264 242.78 78.8469L214.939 81.9493C214.019 82.0046 213.268 82.5576 212.619 83.2891C211.97 84.0206 211.809 85.1846 211.967 86.2832C212.164 87.2411 212.576 87.9551 213.129 88.7068C213.963 89.534 215.155 90.155 216.394 90.0345L248.77 86.3366C250.009 86.2161 251.125 87.1187 251.246 88.3581C251.367 89.5975 250.464 90.7137 249.225 90.8342L226.483 93.4921C225.384 93.6504 224.492 94.1657 223.984 94.9349C223.335 95.6664 223.212 96.6896 223.267 97.6098C223.36 98.3891 223.772 99.1031 224.222 99.6763C225.122 100.823 226.454 101.482 227.732 101.22L261.394 96.6602C262.314 96.605 263.262 97.0098 263.637 97.8646C264.011 98.7194 263.888 99.7426 263.277 100.333C263.277 100.333 254.817 109.383 254.779 109.524C253.2 110.911 253.16 113.315 254.65 115.072C255.344 115.862 256.395 116.445 257.418 116.568C258.3 116.654 259.155 116.279 259.907 115.726C260.085 115.623 276.578 101.936 281.785 97.1446C287.528 92.0442 290.035 83.8136 288.59 75.1276Z" stroke="#2420FF" stroke-width="2" mask="url(#path-3-outside-2)"/>
<mask id="path-4-outside-3" maskUnits="userSpaceOnUse" x="481.522" y="194.16" width="120" height="121" fill="black">
<rect fill="white" x="481.522" y="194.16" width="120" height="121"/>
<path d="M486.229 237.45C489.669 242.874 500.519 258.09 501.18 259.017C502.239 260.604 503.826 261.663 505.679 261.927C507.663 262.324 509.78 261.795 511.5 260.604C514.941 258.223 515.999 253.592 513.75 250.284L511.236 245.388L524.07 250.549L537.963 279.26L530.157 275.291C525.923 272.645 520.498 273.968 517.851 278.202C516.528 280.187 516.131 282.7 516.661 284.95C517.19 287.331 518.645 289.316 520.63 290.639C521.821 291.433 542.329 305.194 549.606 309.692C558.736 315.249 570.379 315.646 580.7 310.751C588.903 306.914 595.122 300.166 598.297 291.83C601.473 283.494 601.208 274.365 597.768 266.161L581.361 230.966C579.774 227.659 576.598 225.806 573.158 225.806C571.835 225.806 570.644 226.071 569.321 226.6C567.601 227.394 566.278 228.585 565.484 230.04L563.367 225.542C562.308 223.292 560.588 221.705 558.207 220.911C557.148 220.514 556.222 220.381 555.164 220.381C553.973 220.381 552.914 220.646 551.723 221.043L550.136 220.514C551.062 219.72 551.856 218.794 552.385 217.603C553.311 215.618 553.311 213.633 552.517 211.649C551.723 209.796 550.4 208.473 548.548 207.812L520.895 196.962C517.984 195.904 514.941 195.374 512.03 195.374C501.048 195.374 490.331 201.99 485.435 212.707C481.466 221.175 481.863 230.437 486.229 237.45ZM556.884 224.748C558.074 225.145 559.133 226.071 559.662 227.262L564.822 238.244C564.822 238.376 564.955 238.508 564.955 238.508L575.937 261.795C576.466 262.854 577.657 263.251 578.583 262.721C579.641 262.192 580.038 261.001 579.509 260.075L568.527 236.788C567.336 234.274 568.395 231.363 570.909 230.173C573.423 228.982 576.333 230.04 577.524 232.554L594.063 267.749C600.547 282.833 593.931 300.033 579.112 307.046C569.982 311.28 559.794 311.015 551.723 306.12C544.446 301.753 523.012 287.331 522.879 287.199C521.689 286.538 521.027 285.347 520.63 284.024C520.365 282.7 520.63 281.377 521.292 280.187C521.953 278.996 523.144 278.334 524.467 277.937C525.79 277.673 527.113 277.937 528.304 278.599C528.304 278.599 528.436 278.599 528.436 278.731L542.858 286.141C543.52 286.538 544.314 286.405 544.975 286.008C552.253 280.848 564.028 281.774 570.115 287.861C570.909 288.655 572.232 288.655 573.026 287.861C573.82 287.067 573.82 285.744 573.026 284.95C565.881 277.805 552.914 276.482 543.917 281.774L530.024 252.666L534.655 254.915C536.904 255.841 539.286 255.444 541.403 254.253L547.622 267.485C548.151 268.543 549.342 268.94 550.268 268.411C551.326 267.881 551.723 266.691 551.194 265.764L544.314 251.21C544.446 251.078 544.446 250.946 544.579 250.681C545.108 249.49 545.372 248.299 545.24 246.976L547.225 247.77C549.342 248.564 551.591 248.432 553.576 247.373L557.942 256.635C558.471 257.693 559.662 258.09 560.588 257.561C561.647 257.032 562.044 255.841 561.515 254.915L556.619 244.462C556.751 244.198 556.884 243.933 557.016 243.536C557.942 241.551 557.942 239.567 557.148 237.582C556.487 236.127 555.428 234.936 554.105 234.142C555.031 233.348 555.825 232.422 556.354 231.231C557.281 229.246 557.281 227.262 556.487 225.277C556.354 225.012 556.222 224.748 556.09 224.483C556.487 224.615 556.619 224.748 556.884 224.748ZM489.007 214.427C494.432 202.652 507.796 196.565 519.439 200.667L547.092 211.516C547.886 211.781 548.416 212.443 548.813 213.237C549.209 214.03 549.077 215.089 548.68 216.015C547.886 217.867 545.637 218.794 543.917 218.132L525.526 210.855C524.467 210.458 523.276 210.987 522.879 212.046C522.482 213.104 523.012 214.295 524.07 214.692L542.462 221.837L542.726 221.969C542.726 221.969 551.723 225.542 551.988 225.674C552.517 225.939 552.782 226.468 553.047 226.997C553.443 227.791 553.311 228.849 552.914 229.776C552.517 230.834 551.591 231.496 550.665 231.893C549.871 232.157 529.76 224.615 529.76 224.615C528.701 224.218 527.51 224.748 527.113 225.806C526.716 226.865 527.246 228.056 528.304 228.452L551.988 237.714C552.782 237.979 553.311 238.64 553.708 239.434C554.105 240.228 553.973 241.287 553.576 242.213C553.179 243.007 552.65 243.536 551.988 244.065C551.062 244.595 549.871 244.859 548.813 244.462L521.292 233.613C520.233 233.216 519.042 233.745 518.645 234.803C518.248 235.862 518.778 237.053 519.836 237.45L539.154 245.124C540.08 245.521 540.741 246.182 541.006 246.976C541.403 247.77 541.271 248.696 541.006 249.49C540.741 250.152 540.212 250.681 539.683 251.078C538.624 251.872 537.301 252.136 536.243 251.607L507.796 239.699C507.002 239.434 506.076 239.567 505.546 240.228C505.017 240.89 504.885 241.816 505.282 242.478C505.282 242.478 510.574 252.401 510.574 252.533C511.633 254.121 511.104 256.238 509.383 257.429C508.59 257.958 507.531 258.223 506.605 258.09C505.811 257.958 505.149 257.429 504.62 256.767C504.488 256.635 493.241 240.757 489.801 235.333C485.964 229.511 485.7 221.705 489.007 214.427Z"/>
</mask>
<path d="M486.229 237.45C489.669 242.874 500.519 258.09 501.18 259.017C502.239 260.604 503.826 261.663 505.679 261.927C507.663 262.324 509.78 261.795 511.5 260.604C514.941 258.223 515.999 253.592 513.75 250.284L511.236 245.388L524.07 250.549L537.963 279.26L530.157 275.291C525.923 272.645 520.498 273.968 517.851 278.202C516.528 280.187 516.131 282.7 516.661 284.95C517.19 287.331 518.645 289.316 520.63 290.639C521.821 291.433 542.329 305.194 549.606 309.692C558.736 315.249 570.379 315.646 580.7 310.751C588.903 306.914 595.122 300.166 598.297 291.83C601.473 283.494 601.208 274.365 597.768 266.161L581.361 230.966C579.774 227.659 576.598 225.806 573.158 225.806C571.835 225.806 570.644 226.071 569.321 226.6C567.601 227.394 566.278 228.585 565.484 230.04L563.367 225.542C562.308 223.292 560.588 221.705 558.207 220.911C557.148 220.514 556.222 220.381 555.164 220.381C553.973 220.381 552.914 220.646 551.723 221.043L550.136 220.514C551.062 219.72 551.856 218.794 552.385 217.603C553.311 215.618 553.311 213.633 552.517 211.649C551.723 209.796 550.4 208.473 548.548 207.812L520.895 196.962C517.984 195.904 514.941 195.374 512.03 195.374C501.048 195.374 490.331 201.99 485.435 212.707C481.466 221.175 481.863 230.437 486.229 237.45ZM556.884 224.748C558.074 225.145 559.133 226.071 559.662 227.262L564.822 238.244C564.822 238.376 564.955 238.508 564.955 238.508L575.937 261.795C576.466 262.854 577.657 263.251 578.583 262.721C579.641 262.192 580.038 261.001 579.509 260.075L568.527 236.788C567.336 234.274 568.395 231.363 570.909 230.173C573.423 228.982 576.333 230.04 577.524 232.554L594.063 267.749C600.547 282.833 593.931 300.033 579.112 307.046C569.982 311.28 559.794 311.015 551.723 306.12C544.446 301.753 523.012 287.331 522.879 287.199C521.689 286.538 521.027 285.347 520.63 284.024C520.365 282.7 520.63 281.377 521.292 280.187C521.953 278.996 523.144 278.334 524.467 277.937C525.79 277.673 527.113 277.937 528.304 278.599C528.304 278.599 528.436 278.599 528.436 278.731L542.858 286.141C543.52 286.538 544.314 286.405 544.975 286.008C552.253 280.848 564.028 281.774 570.115 287.861C570.909 288.655 572.232 288.655 573.026 287.861C573.82 287.067 573.82 285.744 573.026 284.95C565.881 277.805 552.914 276.482 543.917 281.774L530.024 252.666L534.655 254.915C536.904 255.841 539.286 255.444 541.403 254.253L547.622 267.485C548.151 268.543 549.342 268.94 550.268 268.411C551.326 267.881 551.723 266.691 551.194 265.764L544.314 251.21C544.446 251.078 544.446 250.946 544.579 250.681C545.108 249.49 545.372 248.299 545.24 246.976L547.225 247.77C549.342 248.564 551.591 248.432 553.576 247.373L557.942 256.635C558.471 257.693 559.662 258.09 560.588 257.561C561.647 257.032 562.044 255.841 561.515 254.915L556.619 244.462C556.751 244.198 556.884 243.933 557.016 243.536C557.942 241.551 557.942 239.567 557.148 237.582C556.487 236.127 555.428 234.936 554.105 234.142C555.031 233.348 555.825 232.422 556.354 231.231C557.281 229.246 557.281 227.262 556.487 225.277C556.354 225.012 556.222 224.748 556.09 224.483C556.487 224.615 556.619 224.748 556.884 224.748ZM489.007 214.427C494.432 202.652 507.796 196.565 519.439 200.667L547.092 211.516C547.886 211.781 548.416 212.443 548.813 213.237C549.209 214.03 549.077 215.089 548.68 216.015C547.886 217.867 545.637 218.794 543.917 218.132L525.526 210.855C524.467 210.458 523.276 210.987 522.879 212.046C522.482 213.104 523.012 214.295 524.07 214.692L542.462 221.837L542.726 221.969C542.726 221.969 551.723 225.542 551.988 225.674C552.517 225.939 552.782 226.468 553.047 226.997C553.443 227.791 553.311 228.849 552.914 229.776C552.517 230.834 551.591 231.496 550.665 231.893C549.871 232.157 529.76 224.615 529.76 224.615C528.701 224.218 527.51 224.748 527.113 225.806C526.716 226.865 527.246 228.056 528.304 228.452L551.988 237.714C552.782 237.979 553.311 238.64 553.708 239.434C554.105 240.228 553.973 241.287 553.576 242.213C553.179 243.007 552.65 243.536 551.988 244.065C551.062 244.595 549.871 244.859 548.813 244.462L521.292 233.613C520.233 233.216 519.042 233.745 518.645 234.803C518.248 235.862 518.778 237.053 519.836 237.45L539.154 245.124C540.08 245.521 540.741 246.182 541.006 246.976C541.403 247.77 541.271 248.696 541.006 249.49C540.741 250.152 540.212 250.681 539.683 251.078C538.624 251.872 537.301 252.136 536.243 251.607L507.796 239.699C507.002 239.434 506.076 239.567 505.546 240.228C505.017 240.89 504.885 241.816 505.282 242.478C505.282 242.478 510.574 252.401 510.574 252.533C511.633 254.121 511.104 256.238 509.383 257.429C508.59 257.958 507.531 258.223 506.605 258.09C505.811 257.958 505.149 257.429 504.62 256.767C504.488 256.635 493.241 240.757 489.801 235.333C485.964 229.511 485.7 221.705 489.007 214.427Z" fill="#2420FF"/>
<path d="M486.229 237.45C489.669 242.874 500.519 258.09 501.18 259.017C502.239 260.604 503.826 261.663 505.679 261.927C507.663 262.324 509.78 261.795 511.5 260.604C514.941 258.223 515.999 253.592 513.75 250.284L511.236 245.388L524.07 250.549L537.963 279.26L530.157 275.291C525.923 272.645 520.498 273.968 517.851 278.202C516.528 280.187 516.131 282.7 516.661 284.95C517.19 287.331 518.645 289.316 520.63 290.639C521.821 291.433 542.329 305.194 549.606 309.692C558.736 315.249 570.379 315.646 580.7 310.751C588.903 306.914 595.122 300.166 598.297 291.83C601.473 283.494 601.208 274.365 597.768 266.161L581.361 230.966C579.774 227.659 576.598 225.806 573.158 225.806C571.835 225.806 570.644 226.071 569.321 226.6C567.601 227.394 566.278 228.585 565.484 230.04L563.367 225.542C562.308 223.292 560.588 221.705 558.207 220.911C557.148 220.514 556.222 220.381 555.164 220.381C553.973 220.381 552.914 220.646 551.723 221.043L550.136 220.514C551.062 219.72 551.856 218.794 552.385 217.603C553.311 215.618 553.311 213.633 552.517 211.649C551.723 209.796 550.4 208.473 548.548 207.812L520.895 196.962C517.984 195.904 514.941 195.374 512.03 195.374C501.048 195.374 490.331 201.99 485.435 212.707C481.466 221.175 481.863 230.437 486.229 237.45ZM556.884 224.748C558.074 225.145 559.133 226.071 559.662 227.262L564.822 238.244C564.822 238.376 564.955 238.508 564.955 238.508L575.937 261.795C576.466 262.854 577.657 263.251 578.583 262.721C579.641 262.192 580.038 261.001 579.509 260.075L568.527 236.788C567.336 234.274 568.395 231.363 570.909 230.173C573.423 228.982 576.333 230.04 577.524 232.554L594.063 267.749C600.547 282.833 593.931 300.033 579.112 307.046C569.982 311.28 559.794 311.015 551.723 306.12C544.446 301.753 523.012 287.331 522.879 287.199C521.689 286.538 521.027 285.347 520.63 284.024C520.365 282.7 520.63 281.377 521.292 280.187C521.953 278.996 523.144 278.334 524.467 277.937C525.79 277.673 527.113 277.937 528.304 278.599C528.304 278.599 528.436 278.599 528.436 278.731L542.858 286.141C543.52 286.538 544.314 286.405 544.975 286.008C552.253 280.848 564.028 281.774 570.115 287.861C570.909 288.655 572.232 288.655 573.026 287.861C573.82 287.067 573.82 285.744 573.026 284.95C565.881 277.805 552.914 276.482 543.917 281.774L530.024 252.666L534.655 254.915C536.904 255.841 539.286 255.444 541.403 254.253L547.622 267.485C548.151 268.543 549.342 268.94 550.268 268.411C551.326 267.881 551.723 266.691 551.194 265.764L544.314 251.21C544.446 251.078 544.446 250.946 544.579 250.681C545.108 249.49 545.372 248.299 545.24 246.976L547.225 247.77C549.342 248.564 551.591 248.432 553.576 247.373L557.942 256.635C558.471 257.693 559.662 258.09 560.588 257.561C561.647 257.032 562.044 255.841 561.515 254.915L556.619 244.462C556.751 244.198 556.884 243.933 557.016 243.536C557.942 241.551 557.942 239.567 557.148 237.582C556.487 236.127 555.428 234.936 554.105 234.142C555.031 233.348 555.825 232.422 556.354 231.231C557.281 229.246 557.281 227.262 556.487 225.277C556.354 225.012 556.222 224.748 556.09 224.483C556.487 224.615 556.619 224.748 556.884 224.748ZM489.007 214.427C494.432 202.652 507.796 196.565 519.439 200.667L547.092 211.516C547.886 211.781 548.416 212.443 548.813 213.237C549.209 214.03 549.077 215.089 548.68 216.015C547.886 217.867 545.637 218.794 543.917 218.132L525.526 210.855C524.467 210.458 523.276 210.987 522.879 212.046C522.482 213.104 523.012 214.295 524.07 214.692L542.462 221.837L542.726 221.969C542.726 221.969 551.723 225.542 551.988 225.674C552.517 225.939 552.782 226.468 553.047 226.997C553.443 227.791 553.311 228.849 552.914 229.776C552.517 230.834 551.591 231.496 550.665 231.893C549.871 232.157 529.76 224.615 529.76 224.615C528.701 224.218 527.51 224.748 527.113 225.806C526.716 226.865 527.246 228.056 528.304 228.452L551.988 237.714C552.782 237.979 553.311 238.64 553.708 239.434C554.105 240.228 553.973 241.287 553.576 242.213C553.179 243.007 552.65 243.536 551.988 244.065C551.062 244.595 549.871 244.859 548.813 244.462L521.292 233.613C520.233 233.216 519.042 233.745 518.645 234.803C518.248 235.862 518.778 237.053 519.836 237.45L539.154 245.124C540.08 245.521 540.741 246.182 541.006 246.976C541.403 247.77 541.271 248.696 541.006 249.49C540.741 250.152 540.212 250.681 539.683 251.078C538.624 251.872 537.301 252.136 536.243 251.607L507.796 239.699C507.002 239.434 506.076 239.567 505.546 240.228C505.017 240.89 504.885 241.816 505.282 242.478C505.282 242.478 510.574 252.401 510.574 252.533C511.633 254.121 511.104 256.238 509.383 257.429C508.59 257.958 507.531 258.223 506.605 258.09C505.811 257.958 505.149 257.429 504.62 256.767C504.488 256.635 493.241 240.757 489.801 235.333C485.964 229.511 485.7 221.705 489.007 214.427Z" stroke="#E5E5E5" stroke-width="2" mask="url(#path-4-outside-3)"/>
</svg>
