<svg width="30" height="27" viewBox="0 0 30 27" fill="none" xmlns="http://www.w3.org/2000/svg">
<path d="M21.75 0C19.14 0 16.635 1.19183 15 3.0752C13.365 1.19183 10.86 0 8.25 0C3.63 0 0 3.56076 0 8.09264C0 13.6545 5.1 18.1864 12.825 25.0725L15 27L17.175 25.0578C24.9 18.1864 30 13.6545 30 8.09264C30 3.56076 26.37 0 21.75 0ZM15.15 22.8801L15 23.0272L14.85 22.8801C7.71 16.5384 3 12.345 3 8.09264C3 5.14986 5.25 2.94278 8.25 2.94278C10.56 2.94278 12.81 4.39946 13.605 6.41526H16.41C17.19 4.39946 19.44 2.94278 21.75 2.94278C24.75 2.94278 27 5.14986 27 8.09264C27 12.345 22.29 16.5384 15.15 22.8801Z" fill="black"/>
</svg>
