<?xml version="1.0" encoding="utf-8"?>
<!-- Generator: Adobe Illustrator 23.1.1, SVG Export Plug-In . SVG Version: 6.00 Build 0)  -->
<svg version="1.1" id="Layer_1" xmlns="http://www.w3.org/2000/svg" xmlns:xlink="http://www.w3.org/1999/xlink" x="0px" y="0px"
	 viewBox="0 0 61.4 56" style="enable-background:new 0 0 61.4 56;" xml:space="preserve">
<style type="text/css">
	.st0{fill:#2420FF;}
	.st1{fill:#FFFFFF;}
</style>
<path class="st0" d="M30.7,56l-4.5-4C10.4,37.7,0,28.3,0,16.8C0,7.4,7.4,0,16.9,0c5.3,0,10.5,2.5,13.8,6.4C34.1,2.5,39.2,0,44.5,0
	C54,0,61.4,7.4,61.4,16.8C61.4,28.3,51,37.7,35.2,52L30.7,56z"/>
<path class="st1" d="M47.3,20.6c-0.9,1.5-3.9,5.5-4,5.8c-0.3,0.4-0.7,0.7-1.2,0.8c-0.5,0.1-1.1,0-1.6-0.4c-0.9-0.6-1.2-1.9-0.6-2.8
	l0.7-1.3L37,24.1l-3.8,7.7l2.1-1.1c1.1-0.7,2.6-0.4,3.3,0.8c0.4,0.5,0.5,1.2,0.3,1.8c-0.1,0.6-0.5,1.2-1.1,1.5
	c-0.3,0.2-5.9,3.9-7.8,5.1c-2.5,1.5-5.6,1.6-8.4,0.3c-2.2-1-3.9-2.8-4.8-5.1s-0.8-4.7,0.1-6.9l4.4-9.4c0.4-0.9,1.3-1.4,2.2-1.4
	c0.4,0,0.7,0.1,1,0.2c0.5,0.2,0.8,0.5,1,0.9l0.6-1.2c0.3-0.6,0.8-1,1.4-1.2c0.3-0.1,0.5-0.1,0.8-0.1c0.3,0,0.6,0.1,0.9,0.2l0.4-0.1
	c-0.3-0.2-0.5-0.5-0.6-0.8c-0.3-0.5-0.3-1.1,0-1.6c0.2-0.5,0.6-0.9,1.1-1l7.5-2.9c0.8-0.3,1.6-0.4,2.4-0.4c3,0,5.9,1.8,7.2,4.7
	C48.6,16.3,48.4,18.7,47.3,20.6z M28.1,17.2c-0.3,0.1-0.6,0.4-0.8,0.7L26,20.8c0,0,0,0.1,0,0.1l-3,6.3c-0.1,0.3-0.5,0.4-0.7,0.2
	C22,27.3,21.9,27,22,26.7l3-6.3c0.3-0.7,0-1.5-0.6-1.8c-0.7-0.3-1.5,0-1.8,0.6l-4.5,9.4c-1.8,4,0,8.7,4,10.5
	c2.5,1.1,5.2,1.1,7.4-0.2c2-1.2,7.8-5,7.8-5.1c0.3-0.2,0.5-0.5,0.6-0.9c0.1-0.4,0-0.7-0.2-1c-0.2-0.3-0.5-0.5-0.9-0.6
	c-0.4-0.1-0.7,0-1,0.2c0,0,0,0,0,0l-3.9,2c-0.2,0.1-0.4,0.1-0.6,0c-2-1.4-5.2-1.1-6.8,0.5c-0.2,0.2-0.6,0.2-0.8,0
	c-0.2-0.2-0.2-0.6,0-0.8c1.9-1.9,5.4-2.3,7.9-0.9l3.8-7.8l-1.3,0.6c-0.6,0.2-1.3,0.1-1.8-0.2l-1.7,3.6c-0.1,0.3-0.5,0.4-0.7,0.2
	c-0.3-0.1-0.4-0.5-0.3-0.7l1.9-3.9c0,0,0-0.1-0.1-0.1c-0.1-0.3-0.2-0.6-0.2-1l-0.5,0.2c-0.6,0.2-1.2,0.2-1.7-0.1l-1.2,2.5
	c-0.1,0.3-0.5,0.4-0.7,0.2c-0.3-0.1-0.4-0.5-0.3-0.7l1.3-2.8c0-0.1-0.1-0.1-0.1-0.2c-0.3-0.5-0.3-1.1,0-1.6c0.2-0.4,0.5-0.7,0.8-0.9
	c-0.3-0.2-0.5-0.5-0.6-0.8c-0.3-0.5-0.3-1.1,0-1.6c0-0.1,0.1-0.1,0.1-0.2C28.3,17.2,28.2,17.2,28.1,17.2z M46.5,14.4
	c-1.5-3.2-5.1-4.8-8.2-3.7l-7.5,2.9c-0.2,0.1-0.4,0.2-0.5,0.5c-0.1,0.2-0.1,0.5,0,0.7c0.2,0.5,0.8,0.7,1.3,0.6l5-2
	c0.3-0.1,0.6,0,0.7,0.3c0.1,0.3,0,0.6-0.3,0.7l-5,1.9l-0.1,0c0,0-2.4,1-2.5,1c-0.1,0.1-0.2,0.2-0.3,0.4c-0.1,0.2-0.1,0.5,0,0.7
	c0.1,0.3,0.4,0.5,0.6,0.6c0.2,0.1,5.7-2,5.7-2c0.3-0.1,0.6,0,0.7,0.3c0.1,0.3,0,0.6-0.3,0.7l-6.4,2.5c-0.2,0.1-0.4,0.2-0.5,0.5
	c-0.1,0.2-0.1,0.5,0,0.7c0.1,0.2,0.3,0.4,0.4,0.5c0.3,0.1,0.6,0.2,0.9,0.1l7.4-2.9c0.3-0.1,0.6,0,0.7,0.3c0.1,0.3,0,0.6-0.3,0.7
	l-5.2,2.1c-0.3,0.1-0.4,0.3-0.5,0.5c-0.1,0.2-0.1,0.5,0,0.7c0.1,0.2,0.2,0.3,0.4,0.4c0.3,0.2,0.6,0.3,0.9,0.1l7.7-3.2
	c0.2-0.1,0.5,0,0.6,0.1c0.1,0.2,0.2,0.4,0.1,0.6c0,0-1.4,2.7-1.4,2.7c-0.3,0.4-0.1,1,0.3,1.3c0.2,0.1,0.5,0.2,0.8,0.2
	c0.2,0,0.4-0.2,0.5-0.4c0,0,3.1-4.3,4-5.8C47.3,18.5,47.4,16.4,46.5,14.4z"/>
</svg>
