<svg width="267" height="56" viewBox="0 0 267 56" fill="none" xmlns="http://www.w3.org/2000/svg">
<path d="M30.7222 56L26.2675 51.9717C10.4456 37.7199 0 28.3204 0 16.7847C0 7.38529 7.43478 0 16.8972 0C22.2429 0 27.3735 2.47194 30.7222 6.3782C34.0709 2.47194 39.2016 0 44.5472 0C54.0097 0 61.4444 7.38529 61.4444 16.7847C61.4444 28.3204 50.9989 37.7199 35.1769 52.0022L30.7222 56Z" fill="#2420FF"/>
<path d="M47.2647 20.6287C46.3337 22.085 43.3975 26.1698 43.2184 26.4185C42.932 26.8447 42.5023 27.1289 42.001 27.1999C41.4639 27.3065 40.8909 27.1644 40.4255 26.8447C39.4945 26.2054 39.208 24.9622 39.8167 24.0742L40.4971 22.7599L37.0237 24.1452L33.2639 31.8531L35.3766 30.7875C36.5224 30.0771 37.9905 30.4323 38.7067 31.5689C39.0648 32.1017 39.1722 32.7766 39.029 33.3804C38.8857 34.0198 38.4918 34.5526 37.9547 34.9078C37.6325 35.1209 32.0823 38.815 30.1129 40.0227C27.6422 41.5146 24.4911 41.6211 21.6981 40.3069C19.478 39.2768 17.7951 37.4653 16.9357 35.2275C16.0763 32.9897 16.1479 30.5388 17.0789 28.3366L21.5191 18.8882C21.9487 18.0002 22.8081 17.5029 23.7391 17.5029C24.0972 17.5029 24.4195 17.574 24.7775 17.716C25.243 17.9292 25.6011 18.2488 25.816 18.6396L26.3889 17.4319C26.6753 16.828 27.1408 16.4018 27.7854 16.1887C28.0718 16.0821 28.3225 16.0466 28.609 16.0466C28.9312 16.0466 29.2177 16.1176 29.54 16.2242L29.9696 16.0821C29.719 15.869 29.5041 15.6203 29.3609 15.3007C29.1103 14.7679 29.1103 14.2351 29.3251 13.7023C29.54 13.205 29.898 12.8498 30.3993 12.6722L37.8831 9.75952C38.6709 9.47536 39.4945 9.33328 40.2822 9.33328C43.2542 9.33328 46.1547 11.1093 47.4795 13.9864C48.5538 16.2597 48.4464 18.7461 47.2647 20.6287ZM28.1435 17.2188C27.8212 17.3253 27.5347 17.574 27.3915 17.8936L25.995 20.8418C25.995 20.8773 25.9592 20.9129 25.9592 20.9129L22.9872 27.1644C22.8439 27.4486 22.5217 27.5551 22.271 27.413C21.9846 27.271 21.8771 26.9513 22.0204 26.7026L24.9924 20.4511C25.3147 19.7762 25.0282 18.9948 24.3479 18.6751C23.6675 18.3554 22.8797 18.6396 22.5575 19.3144L18.0815 28.7628C16.327 32.8121 18.1173 37.4297 22.1278 39.3123C24.5985 40.4489 27.3557 40.3779 29.54 39.0637C31.5094 37.8915 37.3102 34.0198 37.346 33.9843C37.6683 33.8067 37.8473 33.487 37.9547 33.1318C38.0263 32.7766 37.9547 32.4214 37.7757 32.1017C37.5967 31.782 37.2744 31.6044 36.9163 31.4979C36.5582 31.4268 36.2002 31.4979 35.8779 31.6755C35.8779 31.6755 35.8421 31.6755 35.8421 31.711L31.9391 33.7001C31.76 33.8067 31.5452 33.7712 31.3661 33.6646C29.3967 32.2793 26.2098 32.5279 24.5627 34.1619C24.3479 34.375 23.9898 34.375 23.7749 34.1619C23.5601 33.9488 23.5601 33.5936 23.7749 33.3804C25.7085 31.4623 29.2177 31.1071 31.6526 32.5279L35.4124 24.7135L34.1591 25.3174C33.5504 25.566 32.9059 25.4594 32.3329 25.1398L30.65 28.6918C30.5068 28.9759 30.1845 29.0825 29.9338 28.9404C29.6474 28.7983 29.54 28.4786 29.6832 28.23L31.5452 24.3228C31.5094 24.2873 31.5094 24.2517 31.4736 24.1807C31.3303 23.861 31.2587 23.5413 31.2945 23.1861L30.7574 23.3993C30.1845 23.6124 29.5758 23.5769 29.0386 23.2927L27.857 25.7791C27.7138 26.0633 27.3915 26.1698 27.1408 26.0278C26.8544 25.8857 26.747 25.566 26.8902 25.3174L28.2151 22.5113C28.1793 22.4402 28.1435 22.3692 28.1076 22.2626C27.857 21.7298 27.857 21.197 28.0718 20.6642C28.2509 20.2735 28.5373 19.9538 28.8954 19.7407C28.6448 19.5276 28.4299 19.2789 28.2867 18.9592C28.036 18.4264 28.036 17.8936 28.2509 17.3608C28.2867 17.2898 28.3225 17.2188 28.3583 17.1477C28.2509 17.1832 28.2151 17.2188 28.1435 17.2188ZM46.5127 14.4482C45.0446 11.2869 41.4281 9.65296 38.277 10.7541L30.7932 13.6667C30.5784 13.7378 30.4351 13.9154 30.3277 14.1285C30.2203 14.3416 30.2561 14.6258 30.3635 14.8744C30.5784 15.3717 31.1871 15.6203 31.6526 15.4427L36.6298 13.4891C36.9163 13.3826 37.2386 13.5247 37.346 13.8088C37.4534 14.093 37.3102 14.4127 37.0237 14.5192L32.0465 16.4373L31.9749 16.4728C31.9749 16.4728 29.54 17.4319 29.4683 17.4674C29.3251 17.5384 29.2535 17.6805 29.1819 17.8226C29.0745 18.0357 29.1103 18.3199 29.2177 18.5685C29.3251 18.8527 29.5758 19.0303 29.8264 19.1368C30.0413 19.2079 35.484 17.1832 35.484 17.1832C35.7705 17.0767 36.0927 17.2188 36.2002 17.5029C36.3076 17.7871 36.1644 18.1068 35.8779 18.2133L29.4683 20.6997C29.2535 20.7708 29.1103 20.9484 29.0028 21.1615C28.8954 21.3746 28.9312 21.6588 29.0386 21.9074C29.1461 22.1205 29.2893 22.2626 29.4683 22.4047C29.719 22.5468 30.0413 22.6178 30.3277 22.5113L37.7757 19.5986C38.0622 19.492 38.3844 19.6341 38.4918 19.9183C38.5993 20.2025 38.456 20.5221 38.1696 20.6287L32.9417 22.6889C32.691 22.7954 32.512 22.973 32.4404 23.1861C32.3329 23.3993 32.3687 23.6479 32.4404 23.861C32.512 24.0386 32.6552 24.1807 32.7984 24.2873C33.0849 24.5004 33.443 24.5714 33.7294 24.4293L41.4281 21.2325C41.6429 21.1615 41.8936 21.197 42.0368 21.3746C42.18 21.5522 42.2158 21.8009 42.1084 21.9785C42.1084 21.9785 40.6761 24.6425 40.6761 24.678C40.3896 25.1042 40.5329 25.6726 40.9984 25.9922C41.2132 26.1343 41.4997 26.2054 41.7503 26.1698C41.9652 26.1343 42.1442 25.9922 42.2874 25.8146C42.3233 25.7791 45.3669 21.5167 46.2979 20.0604C47.3363 18.4975 47.4079 16.4018 46.5127 14.4482Z" fill="white"/>
<path d="M131.774 28.2154C131.888 27.692 132.093 27.3506 132.389 27.1913C132.684 27.0093 133.026 26.9182 133.413 26.9182C133.731 26.9638 134.004 27.1344 134.232 27.4303C134.459 27.7261 134.573 28.0902 134.573 28.5226C134.528 29.4101 134.482 30.2066 134.437 30.912C134.391 31.5947 134.357 32.266 134.334 32.9259C134.312 33.5859 134.289 34.28 134.266 35.0082C134.266 35.7136 134.266 36.5328 134.266 37.4659C134.266 37.8527 134.118 38.1713 133.822 38.4216C133.526 38.6947 133.219 38.8312 132.901 38.8312C132.582 38.8312 132.275 38.7175 131.979 38.4899C131.683 38.2623 131.512 37.9096 131.467 37.4317C131.467 35.634 131.501 34.0979 131.569 32.8235L131.774 28.2154ZM130.306 23.2317C130.033 23.1179 129.806 22.9472 129.624 22.7197C129.464 22.4694 129.385 22.219 129.385 21.9687C129.385 21.6274 129.499 21.2974 129.726 20.9788C129.976 20.6602 130.363 20.5009 130.887 20.5009C131.547 20.6147 132.127 20.8081 132.628 21.0812C133.128 21.3543 133.64 21.525 134.164 21.5932C134.573 21.707 134.869 21.9118 135.051 22.2077C135.233 22.4807 135.324 22.7538 135.324 23.0269C135.324 23.3455 135.199 23.6527 134.949 23.9485C134.721 24.2444 134.414 24.3923 134.027 24.3923C133.686 24.3923 133.356 24.3468 133.037 24.2557C132.741 24.1647 132.446 24.0509 132.15 23.9144C131.854 23.7779 131.558 23.6527 131.262 23.5389C130.966 23.4024 130.648 23.3 130.306 23.2317Z" fill="black"/>
<path d="M138.773 24.1875C138.864 24.1647 138.967 24.1533 139.08 24.1533C139.194 24.1533 139.331 24.142 139.49 24.1192H139.524C140.343 24.1192 140.969 24.2557 141.402 24.5288C141.857 24.7791 142.244 25.2115 142.562 25.8259C143.017 25.3708 143.484 25.0522 143.962 24.8702C144.44 24.6654 144.94 24.563 145.464 24.563C146.351 24.563 147.148 24.7905 147.853 25.2456C148.558 25.678 149.15 26.2583 149.628 26.9865C150.129 27.7147 150.504 28.5681 150.754 29.5466C151.028 30.5024 151.164 31.4923 151.164 32.5163C151.164 33.4721 151.084 34.4051 150.925 35.3154C150.789 36.2256 150.686 37.0904 150.618 37.9096C150.368 38.5013 149.935 38.8654 149.321 39.0019H149.184C148.866 38.9564 148.547 38.8312 148.228 38.6264C147.933 38.4216 147.785 38.0575 147.785 37.5341L147.819 37.1928C147.842 37.079 147.864 36.988 147.887 36.9197C147.91 36.8287 147.933 36.749 147.955 36.6808L148.16 35.1788C148.206 34.7692 148.24 34.3596 148.263 33.95C148.308 33.5404 148.331 33.1194 148.331 32.687C148.331 32.2319 148.285 31.6971 148.194 31.0827C148.126 30.4683 147.978 29.888 147.751 29.3418C147.523 28.7729 147.204 28.295 146.795 27.9082C146.385 27.5213 145.85 27.3279 145.19 27.3279C144.94 27.4644 144.656 27.6237 144.337 27.8057C144.019 27.9878 143.723 28.0788 143.45 28.0788H143.313C143.245 28.0788 143.211 28.1016 143.211 28.1471C143.211 28.1699 143.211 28.1812 143.211 28.1812C143.233 28.1812 143.245 28.1926 143.245 28.2154C143.359 28.8753 143.438 29.558 143.484 30.2634C143.552 30.9689 143.586 31.6857 143.586 32.4139C143.586 32.9828 143.563 33.6428 143.518 34.3937C143.495 35.1219 143.415 35.8274 143.279 36.5101C143.142 37.17 142.938 37.7276 142.665 38.1827C142.414 38.6606 142.05 38.8995 141.572 38.8995C141.231 38.8995 140.901 38.7857 140.582 38.5582C140.286 38.3306 140.139 37.9551 140.139 37.4317C140.139 37.2952 140.15 37.1928 140.173 37.1245C140.605 35.6226 140.821 33.95 140.821 32.1067C140.821 30.1724 140.639 28.5453 140.275 27.2255L140.173 27.0889C139.945 27.0662 139.695 27.0206 139.422 26.9524C139.171 26.8841 138.932 26.7931 138.705 26.6793C138.477 26.5428 138.284 26.3835 138.125 26.2014C137.965 25.9966 137.886 25.7463 137.886 25.4505C137.886 24.8815 138.182 24.4605 138.773 24.1875Z" fill="black"/>
<path d="M162.225 34.4279C162.521 34.0865 162.771 33.8703 162.976 33.7793C163.204 33.6655 163.443 33.6086 163.693 33.6086C164.08 33.6086 164.364 33.7679 164.546 34.0865C164.751 34.4051 164.853 34.7692 164.853 35.1788C164.74 35.6112 164.546 35.9753 164.273 36.2712C164.023 36.567 163.716 36.8059 163.352 36.988C162.987 37.17 162.589 37.3066 162.157 37.3976C161.724 37.4659 161.292 37.5 160.86 37.5C160.405 37.4772 159.949 37.409 159.494 37.2952C159.062 37.1814 158.652 37.0335 158.265 36.8514C157.879 36.6466 157.537 36.4191 157.241 36.1687C156.968 35.8957 156.775 35.5885 156.661 35.2471C156.138 33.95 155.785 32.6187 155.603 31.2533C155.421 29.8652 155.33 28.5226 155.33 27.2255V26.3721L153.214 26.6793C152.758 26.6338 152.406 26.4745 152.155 26.2014C151.928 25.9283 151.814 25.5984 151.814 25.2115C151.814 24.9612 151.905 24.7109 152.087 24.4605C152.269 24.1875 152.542 23.994 152.906 23.8803L155.398 23.573C155.398 22.7766 155.421 21.9915 155.466 21.2178C155.535 20.4213 155.58 19.6248 155.603 18.8283C155.853 18.0318 156.308 17.5881 156.968 17.4971C157.628 17.4971 158.106 17.9181 158.402 18.7601C158.356 19.6703 158.288 20.8081 158.197 22.1735L158.129 23.1293C158.721 23.0383 159.335 22.97 159.972 22.9245C160.609 22.879 161.281 22.8562 161.986 22.8562C162.805 23.1521 163.215 23.6072 163.215 24.2216C163.169 24.5402 163.044 24.836 162.839 25.1091C162.635 25.3594 162.327 25.5301 161.918 25.6211C160.575 25.6211 159.289 25.7235 158.061 25.9283V26.8158C158.061 27.544 158.083 28.2723 158.129 29.0005C158.174 29.7059 158.231 30.3886 158.3 31.0485C158.391 31.6857 158.504 32.2774 158.641 32.8235C158.777 33.3469 158.937 33.7793 159.119 34.1207C159.415 34.2572 159.756 34.3937 160.143 34.5303C160.53 34.6441 160.905 34.701 161.269 34.701C161.474 34.701 161.747 34.6441 162.089 34.5303L162.225 34.4279Z" fill="black"/>
<path d="M168.507 28.4543C168.462 28.4771 168.439 28.4998 168.439 28.5226H168.507C168.667 28.5226 168.826 28.5681 168.985 28.6591C169.144 28.7274 169.281 28.8184 169.395 28.9322C169.509 29.0232 169.6 29.1142 169.668 29.2053C169.759 29.2735 169.816 29.3077 169.838 29.3077C170.18 29.467 170.555 29.5466 170.965 29.5466C171.625 29.5466 172.182 29.4556 172.638 29.2735C173.093 29.0687 173.32 28.5908 173.32 27.8399C173.184 27.3848 173.024 27.0093 172.842 26.7134C172.683 26.4176 172.41 26.1331 172.023 25.8601L171.306 25.5529H170.828C170.646 25.5529 170.407 25.5984 170.112 25.6894C169.816 25.7804 169.52 25.9056 169.224 26.0649C169.133 26.2014 169.042 26.4062 168.951 26.6793C168.86 26.9296 168.78 27.1799 168.712 27.4303C168.644 27.6806 168.587 27.9082 168.541 28.113C168.519 28.3178 168.507 28.4316 168.507 28.4543ZM168.78 31.7654L168.678 31.3899C168.951 32.596 169.611 33.5859 170.658 34.3596C170.885 34.5417 171.17 34.701 171.511 34.8375C171.875 34.974 172.228 35.0992 172.569 35.213C172.933 35.3268 173.252 35.4178 173.525 35.4861C173.798 35.5316 173.969 35.5543 174.037 35.5543C174.265 35.3495 174.549 35.2471 174.89 35.2471C175.3 35.2926 175.619 35.4633 175.846 35.7591C176.074 36.0322 176.188 36.328 176.188 36.6466C176.188 37.1473 175.949 37.5455 175.471 37.8413C175.016 38.1599 174.526 38.3192 174.003 38.3192C172.888 38.3192 171.83 38.0917 170.828 37.6365C169.827 37.2042 168.951 36.6125 168.2 35.8615C167.449 35.1106 166.835 34.2458 166.357 33.2673C165.902 32.2888 165.651 31.2534 165.606 30.161C165.606 29.4101 165.663 28.6022 165.776 27.7375C165.89 26.8727 166.129 26.0763 166.493 25.348C166.857 24.5971 167.381 23.9713 168.063 23.4706C168.769 22.97 169.702 22.7197 170.863 22.7197C171.591 22.7197 172.273 22.879 172.911 23.1976C173.548 23.4934 174.094 23.903 174.549 24.4264C175.027 24.9498 175.402 25.5529 175.676 26.2356C175.949 26.8955 176.085 27.5896 176.085 28.3178C176.085 28.9777 175.96 29.558 175.71 30.0586C175.482 30.5593 175.163 30.9803 174.754 31.3216C174.344 31.6402 173.855 31.8905 173.286 32.0726C172.74 32.2319 172.16 32.3115 171.545 32.3115C171.295 32.3115 171.01 32.2888 170.692 32.2433C170.396 32.1977 170.112 32.1522 169.838 32.1067C169.565 32.0384 169.326 31.9816 169.122 31.936C168.94 31.8678 168.826 31.8109 168.78 31.7654Z" fill="black"/>
<path d="M178.851 36.476C178.851 35.8615 178.863 35.2244 178.886 34.5644C178.931 33.9045 179.011 33.2787 179.124 32.687L179.363 30.161L179.671 28.3178C179.739 28.0219 179.773 27.7489 179.773 27.4985C179.773 27.2255 179.716 26.941 179.602 26.6452C179.511 26.3493 179.25 26.2014 178.817 26.2014C178.635 26.2014 178.453 26.1559 178.271 26.0649C178.112 25.9511 177.964 25.8259 177.827 25.6894C177.691 25.5301 177.577 25.3708 177.486 25.2115C177.418 25.0522 177.384 24.9043 177.384 24.7678C177.384 24.4947 177.52 24.1988 177.793 23.8803C178.066 23.5617 178.442 23.4024 178.92 23.4024C180.103 23.5162 180.968 23.8461 181.514 24.3923C182.06 24.9384 182.333 25.6097 182.333 26.4062C183.016 25.9283 183.812 25.5756 184.723 25.348C185.633 25.0977 186.714 24.9271 187.965 24.836C188.466 24.836 188.853 24.9726 189.126 25.2456C189.399 25.496 189.536 25.8146 189.536 26.2014C189.536 26.5428 189.422 26.85 189.194 27.1231C188.967 27.3734 188.659 27.5327 188.273 27.6009C187.226 27.6692 186.338 27.783 185.61 27.9423C184.882 28.1016 184.267 28.3633 183.767 28.7274C183.266 29.0687 182.879 29.5352 182.606 30.1269C182.333 30.7186 182.128 31.4809 181.992 32.4139L181.889 32.9259V34.3255C181.867 34.6668 181.844 35.0195 181.821 35.3836C181.821 35.725 181.798 36.0777 181.753 36.4418L181.65 37.0562L181.446 37.6024C181.082 38.0348 180.661 38.251 180.183 38.251C179.363 38.251 178.92 37.7731 178.851 36.8173V36.476Z" fill="black"/>
<path d="M193.155 28.4543C193.11 28.4771 193.087 28.4998 193.087 28.5226H193.155C193.314 28.5226 193.474 28.5681 193.633 28.6591C193.792 28.7274 193.929 28.8184 194.043 28.9322C194.156 29.0232 194.248 29.1142 194.316 29.2053C194.407 29.2735 194.464 29.3077 194.486 29.3077C194.828 29.467 195.203 29.5466 195.613 29.5466C196.273 29.5466 196.83 29.4556 197.285 29.2735C197.741 29.0687 197.968 28.5908 197.968 27.8399C197.832 27.3848 197.672 27.0093 197.49 26.7134C197.331 26.4176 197.058 26.1331 196.671 25.8601L195.954 25.5529H195.476C195.294 25.5529 195.055 25.5984 194.76 25.6894C194.464 25.7804 194.168 25.9056 193.872 26.0649C193.781 26.2014 193.69 26.4062 193.599 26.6793C193.508 26.9296 193.428 27.1799 193.36 27.4303C193.292 27.6806 193.235 27.9082 193.189 28.113C193.167 28.3178 193.155 28.4316 193.155 28.4543ZM193.428 31.7654L193.326 31.3899C193.599 32.596 194.259 33.5859 195.306 34.3596C195.533 34.5417 195.818 34.701 196.159 34.8375C196.523 34.974 196.876 35.0992 197.217 35.213C197.581 35.3268 197.9 35.4178 198.173 35.4861C198.446 35.5316 198.617 35.5543 198.685 35.5543C198.913 35.3495 199.197 35.2471 199.538 35.2471C199.948 35.2926 200.267 35.4633 200.494 35.7591C200.722 36.0322 200.836 36.328 200.836 36.6466C200.836 37.1473 200.597 37.5455 200.119 37.8413C199.664 38.1599 199.174 38.3192 198.651 38.3192C197.536 38.3192 196.478 38.0917 195.476 37.6365C194.475 37.2042 193.599 36.6125 192.848 35.8615C192.097 35.1106 191.483 34.2458 191.005 33.2673C190.55 32.2888 190.299 31.2534 190.254 30.161C190.254 29.4101 190.311 28.6022 190.424 27.7375C190.538 26.8727 190.777 26.0763 191.141 25.348C191.505 24.5971 192.029 23.9713 192.711 23.4706C193.417 22.97 194.35 22.7197 195.51 22.7197C196.239 22.7197 196.921 22.879 197.559 23.1976C198.196 23.4934 198.742 23.903 199.197 24.4264C199.675 24.9498 200.05 25.5529 200.323 26.2356C200.597 26.8955 200.733 27.5896 200.733 28.3178C200.733 28.9777 200.608 29.558 200.358 30.0586C200.13 30.5593 199.811 30.9803 199.402 31.3216C198.992 31.6402 198.503 31.8905 197.934 32.0726C197.388 32.2319 196.808 32.3115 196.193 32.3115C195.943 32.3115 195.658 32.2888 195.34 32.2433C195.044 32.1977 194.76 32.1522 194.486 32.1067C194.213 32.0384 193.974 31.9816 193.77 31.936C193.588 31.8678 193.474 31.8109 193.428 31.7654Z" fill="black"/>
<path d="M210.702 23.2317C211.066 23.3455 211.339 23.5389 211.521 23.812C211.703 24.0851 211.794 24.3581 211.794 24.6312C211.794 25.0181 211.658 25.348 211.384 25.6211C211.111 25.8714 210.781 25.9966 210.395 25.9966C210.281 25.9966 210.19 25.9852 210.122 25.9625C209.644 25.8259 209.2 25.7235 208.79 25.6553C208.381 25.5642 207.982 25.5187 207.596 25.5187C207.254 25.5187 206.913 25.5529 206.571 25.6211C206.23 25.6894 205.866 25.7804 205.479 25.8942L205.445 25.9283C205.786 26.5883 206.253 27.1686 206.845 27.6692C207.436 28.1698 208.051 28.6819 208.688 29.2053C209.325 29.7059 209.928 30.2407 210.497 30.8096C211.089 31.3785 211.521 32.0384 211.794 32.7894C211.908 33.0852 211.965 33.3925 211.965 33.711C211.965 34.1889 211.874 34.6896 211.692 35.213C211.51 35.7364 211.237 36.2143 210.872 36.6466C210.531 37.079 210.087 37.4317 209.541 37.7048C208.995 38.0006 208.346 38.1486 207.596 38.1486C206.754 38.1486 205.98 38.012 205.274 37.7389C204.592 37.4886 203.989 37.1473 203.465 36.7149L202.817 36.3053L202.509 35.9981C202.168 35.7022 201.986 35.3381 201.963 34.9058V34.701C202.032 34.2686 202.179 33.9614 202.407 33.7793C202.657 33.5745 202.953 33.4493 203.295 33.4038C203.75 33.4038 204.171 33.6428 204.558 34.1207L205.377 34.5644C205.695 34.7465 206.048 34.9285 206.435 35.1106C206.845 35.2926 207.243 35.3836 207.63 35.3836C207.948 35.3836 208.255 35.2926 208.551 35.1106L208.756 34.9399C208.824 34.7351 208.881 34.5303 208.927 34.3255C208.995 34.1207 209.029 33.9272 209.029 33.7452C209.029 33.4038 208.95 33.1194 208.79 32.8918C208.654 32.6415 208.46 32.4253 208.21 32.2433C207.982 32.0384 207.732 31.8564 207.459 31.6971C207.186 31.515 206.913 31.3216 206.64 31.1168C206.389 30.9348 206.037 30.6503 205.582 30.2634C205.149 29.8538 204.705 29.3987 204.25 28.8981C203.795 28.3974 203.397 27.874 203.056 27.3279C202.737 26.759 202.578 26.2356 202.578 25.7577C202.578 25.1888 202.748 24.7109 203.09 24.324C203.431 23.9144 203.852 23.5958 204.353 23.3682C204.853 23.1179 205.377 22.9472 205.923 22.8562C206.469 22.7424 206.936 22.6855 207.322 22.6855C207.96 22.6855 208.529 22.7311 209.029 22.8221C209.553 22.9131 210.11 23.0496 210.702 23.2317Z" fill="black"/>
<path d="M215.516 24.836C215.198 24.4719 215.038 24.1192 215.038 23.7779C215.038 23.391 215.152 23.061 215.38 22.7879C215.63 22.5149 215.949 22.3783 216.335 22.3783C216.631 22.3783 216.927 22.4694 217.223 22.6514C217.519 22.8107 217.792 23.0155 218.042 23.2658C218.292 23.4934 218.509 23.721 218.691 23.9485C218.873 24.1761 218.987 24.3354 219.032 24.4264C219.078 24.4037 219.18 24.3923 219.339 24.3923C219.772 24.3923 220.181 24.5061 220.568 24.7336C220.978 24.9384 221.342 25.2115 221.66 25.5529C222.002 25.8942 222.298 26.2583 222.548 26.6452C222.798 27.032 223.014 27.3961 223.196 27.7375C223.379 28.0788 223.538 28.4543 223.674 28.8639C223.834 29.2508 223.959 29.649 224.05 30.0586C224.141 30.4683 224.209 30.8665 224.255 31.2533C224.3 31.6402 224.323 31.9929 224.323 32.3115C224.323 33.2445 224.198 34.1207 223.947 34.9399C223.72 35.7364 223.333 36.4418 222.787 37.0562C222.263 37.6707 221.569 38.1486 220.705 38.4899C219.84 38.854 218.782 39.0361 217.53 39.0361C216.62 39.0361 215.869 38.763 215.277 38.2168C214.708 37.6707 214.265 37.0335 213.946 36.3053C213.627 35.5543 213.4 34.792 213.263 34.0183C213.149 33.2445 213.093 32.6187 213.093 32.1409C213.093 31.6857 213.149 31.242 213.263 30.8096C213.377 30.3772 213.525 29.979 213.707 29.6149C213.889 29.228 214.071 28.8867 214.253 28.5908C214.458 28.295 214.651 28.0447 214.833 27.8399L216.54 25.8259C216.517 25.7349 216.438 25.6325 216.301 25.5187C216.187 25.3822 216.074 25.257 215.96 25.1432L215.516 24.836ZM218.964 27.0206L218.827 27.2255C218.554 27.5668 218.247 27.9195 217.906 28.2836C217.587 28.6477 217.28 29.0232 216.984 29.4101C216.688 29.7969 216.438 30.2179 216.233 30.6731C216.028 31.1282 215.926 31.6288 215.926 32.175C215.926 32.6756 215.96 33.1763 216.028 33.6769C216.119 34.1548 216.233 34.5872 216.37 34.974C216.529 35.3609 216.722 35.6795 216.95 35.9298C217.177 36.1574 217.439 36.2712 217.735 36.2712C217.985 36.2712 218.236 36.2484 218.486 36.2029C218.759 36.1574 218.998 36.1119 219.203 36.0663L220.432 35.4519C220.5 35.3609 220.614 35.2471 220.773 35.1106C220.932 34.9513 221.057 34.792 221.148 34.6327C221.353 33.8817 221.456 33.1421 221.456 32.4139C221.456 31.4582 221.296 30.5479 220.978 29.6832C220.659 28.7957 220.17 27.9878 219.51 27.2596L219.1 27.0548H219.066C219.021 27.0548 218.987 27.0434 218.964 27.0206Z" fill="black"/>
<path d="M226.782 25.7918C226.759 25.7463 226.748 25.6666 226.748 25.5529C226.748 25.166 226.896 24.8474 227.192 24.5971C227.487 24.3468 227.817 24.2216 228.181 24.2216C228.773 24.2216 229.308 24.7222 229.786 25.7235C230.264 26.7248 230.696 28.1471 231.083 29.9904L231.356 31.3558V31.424C231.356 31.424 231.413 31.3102 231.527 31.0827C231.64 30.8324 231.766 30.5365 231.902 30.1952C232.061 29.8538 232.221 29.5125 232.38 29.1711C232.539 28.8298 232.665 28.5567 232.756 28.3519L233.506 26.4404C233.575 26.0763 233.689 25.8146 233.848 25.6553C233.848 25.6325 233.859 25.6097 233.882 25.587C233.927 25.5415 233.973 25.4846 234.019 25.4163L234.223 25.3139C234.292 25.2912 234.383 25.257 234.496 25.2115C234.633 25.166 234.769 25.1432 234.906 25.1432C235.407 25.1432 235.816 25.4049 236.135 25.9283L236.203 26.1673L236.237 26.4062C236.419 26.8158 236.624 27.271 236.852 27.7716C237.079 28.2495 237.307 28.7274 237.534 29.2053C237.762 29.6832 237.99 30.1383 238.217 30.5707C238.467 31.003 238.706 31.3899 238.934 31.7312C239.139 31.3671 239.355 30.9575 239.582 30.5024C239.81 30.0245 240.026 29.5352 240.231 29.0346C240.436 28.5112 240.607 27.9878 240.743 27.4644C240.902 26.9182 241.005 26.3835 241.05 25.8601C241.119 25.4505 241.301 25.1432 241.596 24.9384C241.892 24.7109 242.188 24.5971 242.484 24.5971C242.871 24.5971 243.189 24.745 243.44 25.0408C243.713 25.3367 243.849 25.7122 243.849 26.1673C243.781 26.9182 243.633 27.6465 243.406 28.3519C243.201 29.0346 242.95 29.7059 242.655 30.3658C242.382 31.0258 242.074 31.663 241.733 32.2774C241.414 32.8918 241.084 33.5062 240.743 34.1207C240.652 34.3482 240.572 34.6099 240.504 34.9058C240.436 35.2016 240.333 35.486 240.197 35.7591C240.06 36.0322 239.878 36.2712 239.651 36.476C239.446 36.658 239.161 36.749 238.797 36.749C238.433 36.749 238.16 36.6353 237.978 36.4077C237.796 36.1801 237.66 35.8615 237.569 35.4519C237.455 34.883 237.193 34.2344 236.783 33.5062C236.397 32.7553 235.976 31.9816 235.52 31.1851L235.077 30.5024L234.326 31.9702C234.098 32.4026 233.905 32.7894 233.745 33.1308C233.609 33.4493 233.484 33.7452 233.37 34.0183C233.279 34.2913 233.188 34.5644 233.097 34.8375C233.029 35.1106 232.949 35.4178 232.858 35.7591L232.687 36.3736C232.551 36.897 232.369 37.2952 232.141 37.5683C231.936 37.8641 231.64 38.012 231.254 38.012C230.935 38.012 230.639 37.8869 230.366 37.6365C230.093 37.3862 229.922 37.0221 229.854 36.5442V36.4077C229.558 34.9968 229.262 33.7679 228.967 32.7211C228.671 31.6743 228.386 30.6048 228.113 29.5125C227.977 28.9891 227.795 28.3747 227.567 27.6692C227.339 26.941 227.078 26.3152 226.782 25.7918Z" fill="black"/>
<path d="M245.284 24.1875C245.375 24.1647 245.478 24.1533 245.592 24.1533C245.705 24.1533 245.842 24.142 246.001 24.1192H246.035C246.855 24.1192 247.48 24.2557 247.913 24.5288C248.368 24.7791 248.755 25.2115 249.073 25.8259C249.528 25.3708 249.995 25.0522 250.473 24.8702C250.951 24.6654 251.451 24.563 251.975 24.563C252.862 24.563 253.659 24.7905 254.364 25.2456C255.07 25.678 255.661 26.2583 256.139 26.9865C256.64 27.7147 257.015 28.5681 257.266 29.5466C257.539 30.5024 257.675 31.4923 257.675 32.5163C257.675 33.4721 257.596 34.4051 257.436 35.3154C257.3 36.2256 257.197 37.0904 257.129 37.9096C256.879 38.5013 256.446 38.8654 255.832 39.0019H255.695C255.377 38.9564 255.058 38.8312 254.74 38.6264C254.444 38.4216 254.296 38.0575 254.296 37.5341L254.33 37.1928C254.353 37.079 254.376 36.988 254.398 36.9197C254.421 36.8287 254.444 36.749 254.467 36.6808L254.671 35.1788C254.717 34.7692 254.751 34.3596 254.774 33.95C254.819 33.5404 254.842 33.1194 254.842 32.687C254.842 32.2319 254.797 31.6971 254.706 31.0827C254.637 30.4683 254.489 29.888 254.262 29.3418C254.034 28.7729 253.716 28.295 253.306 27.9082C252.896 27.5213 252.362 27.3279 251.702 27.3279C251.451 27.4644 251.167 27.6237 250.848 27.8057C250.53 27.9878 250.234 28.0788 249.961 28.0788H249.824C249.756 28.0788 249.722 28.1016 249.722 28.1471C249.722 28.1699 249.722 28.1812 249.722 28.1812C249.745 28.1812 249.756 28.1926 249.756 28.2154C249.87 28.8753 249.949 29.558 249.995 30.2634C250.063 30.9689 250.097 31.6857 250.097 32.4139C250.097 32.9828 250.075 33.6428 250.029 34.3937C250.006 35.1219 249.927 35.8274 249.79 36.5101C249.654 37.17 249.449 37.7276 249.176 38.1827C248.925 38.6606 248.561 38.8995 248.083 38.8995C247.742 38.8995 247.412 38.7857 247.093 38.5582C246.798 38.3306 246.65 37.9551 246.65 37.4317C246.65 37.2952 246.661 37.1928 246.684 37.1245C247.116 35.6226 247.332 33.95 247.332 32.1067C247.332 30.1724 247.15 28.5453 246.786 27.2255L246.684 27.0889C246.456 27.0662 246.206 27.0206 245.933 26.9524C245.683 26.8841 245.444 26.7931 245.216 26.6793C244.989 26.5428 244.795 26.3835 244.636 26.2014C244.476 25.9966 244.397 25.7463 244.397 25.4505C244.397 24.8815 244.693 24.4605 245.284 24.1875Z" fill="black"/>
<path d="M262.797 28.2154C262.911 27.692 263.115 27.3506 263.411 27.1913C263.707 27.0093 264.048 26.9182 264.435 26.9182C264.754 26.9638 265.027 27.1344 265.254 27.4303C265.482 27.7261 265.596 28.0902 265.596 28.5226C265.55 29.4101 265.505 30.2066 265.459 30.912C265.414 31.5947 265.38 32.266 265.357 32.9259C265.334 33.5859 265.311 34.28 265.289 35.0082C265.289 35.7136 265.289 36.5328 265.289 37.4659C265.289 37.8527 265.141 38.1713 264.845 38.4216C264.549 38.6947 264.242 38.8312 263.923 38.8312C263.605 38.8312 263.297 38.7175 263.002 38.4899C262.706 38.2623 262.535 37.9096 262.49 37.4317C262.49 35.634 262.524 34.0979 262.592 32.8235L262.797 28.2154ZM261.329 23.2317C261.056 23.1179 260.828 22.9472 260.646 22.7197C260.487 22.4694 260.407 22.219 260.407 21.9687C260.407 21.6274 260.521 21.2974 260.749 20.9788C260.999 20.6602 261.386 20.5009 261.909 20.5009C262.569 20.6147 263.15 20.8081 263.65 21.0812C264.151 21.3543 264.663 21.525 265.186 21.5932C265.596 21.707 265.892 21.9118 266.074 22.2077C266.256 22.4807 266.347 22.7538 266.347 23.0269C266.347 23.3455 266.222 23.6527 265.971 23.9485C265.744 24.2444 265.437 24.3923 265.05 24.3923C264.708 24.3923 264.378 24.3468 264.06 24.2557C263.764 24.1647 263.468 24.0509 263.172 23.9144C262.876 23.7779 262.581 23.6527 262.285 23.5389C261.989 23.4024 261.67 23.3 261.329 23.2317Z" fill="black"/>
<path d="M75.37 12.1923L75.5076 11.9629C75.6299 11.7183 75.8746 11.5042 76.2415 11.3208C76.639 11.1373 77.0977 10.9844 77.6176 10.8621C78.1374 10.7397 78.6878 10.648 79.2688 10.5869C79.8498 10.5257 80.4155 10.4951 80.966 10.4951C81.9445 10.4951 82.7701 10.6939 83.4429 11.0914C84.1462 11.4584 84.7119 11.9323 85.14 12.5133C85.5681 13.0638 85.8739 13.6753 86.0574 14.3481C86.2714 14.9902 86.3785 15.5865 86.3785 16.1369C86.3479 16.8403 86.2561 17.5283 86.1032 18.201C85.9503 18.8738 85.7057 19.5159 85.3693 20.1275L84.8648 21.0449C86.2103 21.0449 87.3111 21.1825 88.1673 21.4577C89.0235 21.7023 89.6963 22.0846 90.1855 22.6044C90.6748 23.0937 91.0112 23.7205 91.1946 24.485C91.3781 25.2189 91.4699 26.0751 91.4699 27.0536C91.4699 28.2462 91.3628 29.3012 91.1488 30.2186C90.9347 31.1359 90.6289 31.9463 90.2314 32.6496C89.8645 33.3529 89.3905 33.9798 88.8095 34.5302C88.2591 35.0806 87.6322 35.6005 86.9289 36.0897C86.0727 36.7625 85.1094 37.2212 84.0392 37.4658C82.9689 37.6798 81.9292 37.8633 80.9201 38.0162C80.2779 37.955 79.8346 37.8022 79.5899 37.5575L79.4982 37.3741C79.1618 37.6187 78.8101 37.7563 78.4432 37.7869C77.9845 37.7869 77.5411 37.6798 77.113 37.4658C76.7155 37.2212 76.4862 36.7472 76.425 36.0439L76.2874 32.5579L76.1498 31.0901C75.8746 29.3165 75.6146 27.6805 75.37 26.1821C75.1254 24.6838 74.896 23.2618 74.682 21.9164C74.4985 20.5403 74.315 19.2101 74.1316 17.9258C73.9787 16.6109 73.8411 15.2349 73.7188 13.7976C73.8411 13.2472 74.0551 12.865 74.3609 12.6509C74.6973 12.4063 75.0336 12.2534 75.37 12.1923ZM82.1586 24.5309C81.9445 24.959 81.5317 25.3412 80.9201 25.6776C80.3391 25.9834 79.804 26.1363 79.3147 26.1363H79.1312L79.7275 30.3103C79.9416 31.931 80.0792 33.3529 80.1403 34.5761V34.6219H80.1862C80.2474 34.6219 80.3238 34.6067 80.4155 34.5761C85.2776 33.8422 87.7086 31.5793 87.7086 27.7875C87.7086 27.3289 87.6628 26.8396 87.571 26.3197C87.5099 25.7999 87.4028 25.2648 87.25 24.7143L87.2041 24.6685C86.9595 24.5767 86.5925 24.485 86.1032 24.3933C85.614 24.271 85.0636 24.2098 84.452 24.2098C83.7487 24.2098 82.9842 24.3168 82.1586 24.5309ZM78.4891 22.1457V22.1916C78.5502 22.1916 78.7796 22.0998 79.1771 21.9164C79.5746 21.7023 79.8957 21.5647 80.1403 21.5036L80.2779 21.3659C80.8895 20.6626 81.4247 19.837 81.8833 18.8891C82.342 17.9105 82.5714 16.9932 82.5714 16.1369C82.5714 15.5559 82.4338 15.0514 82.1586 14.6233C81.9139 14.1952 81.4094 13.9811 80.6449 13.9811C80.1556 13.9811 79.6205 14.0576 79.0395 14.2105C78.4585 14.3634 77.9539 14.4704 77.5258 14.5315C77.5564 15.1431 77.6023 15.8006 77.6634 16.5039C77.7552 17.1766 77.8469 17.8494 77.9387 18.5221C78.0304 19.1948 78.1221 19.8523 78.2139 20.4944C78.3056 21.106 78.3973 21.6564 78.4891 22.1457Z" fill="#2420FF"/>
<path d="M96.5172 25.3565C96.4561 25.3871 96.4255 25.4177 96.4255 25.4482H96.5172C96.7313 25.4482 96.9453 25.5094 97.1594 25.6317C97.3734 25.7235 97.5569 25.8458 97.7098 25.9987C97.8627 26.121 97.985 26.2433 98.0768 26.3656C98.1991 26.4574 98.2755 26.5032 98.3061 26.5032C98.7648 26.7173 99.2693 26.8243 99.8198 26.8243C100.707 26.8243 101.456 26.702 102.067 26.4574C102.679 26.1821 102.985 25.54 102.985 24.5309C102.801 23.9193 102.587 23.4147 102.343 23.0172C102.128 22.6197 101.762 22.2375 101.242 21.8705L100.278 21.4577H99.6363C99.3916 21.4577 99.0706 21.5188 98.673 21.6412C98.2755 21.7635 97.878 21.9317 97.4805 22.1457C97.3581 22.3292 97.2358 22.6044 97.1135 22.9713C96.9912 23.3077 96.8842 23.6441 96.7924 23.9805C96.7007 24.3168 96.6243 24.6226 96.5631 24.8978C96.5325 25.173 96.5172 25.3259 96.5172 25.3565ZM96.8842 29.8058L96.7466 29.3012C97.1135 30.9219 98.0003 32.2521 99.4069 33.2918C99.7127 33.5364 100.095 33.7504 100.554 33.9339C101.043 34.1174 101.517 34.2856 101.976 34.4385C102.465 34.5914 102.893 34.7137 103.26 34.8054C103.627 34.8666 103.856 34.8972 103.948 34.8972C104.254 34.6219 104.636 34.4843 105.095 34.4843C105.645 34.5455 106.073 34.7748 106.379 35.1724C106.685 35.5393 106.838 35.9368 106.838 36.3649C106.838 37.0377 106.517 37.5728 105.874 37.9703C105.263 38.3984 104.605 38.6125 103.902 38.6125C102.404 38.6125 100.982 38.3067 99.6363 37.6951C98.2908 37.1141 97.1135 36.3191 96.1044 35.31C95.0953 34.3009 94.2697 33.1389 93.6275 31.824C93.0159 30.5091 92.6796 29.1177 92.6184 27.6499C92.6184 26.6408 92.6948 25.5553 92.8477 24.3933C93.0006 23.2313 93.3217 22.161 93.811 21.1825C94.3002 20.1734 95.0036 19.3324 95.9209 18.6597C96.8689 17.987 98.1226 17.6506 99.6822 17.6506C100.661 17.6506 101.578 17.8647 102.434 18.2928C103.29 18.6903 104.024 19.2407 104.636 19.944C105.278 20.6473 105.783 21.4577 106.15 22.3751C106.517 23.2618 106.7 24.1945 106.7 25.173C106.7 26.0598 106.532 26.8396 106.195 27.5123C105.89 28.1851 105.462 28.7508 104.911 29.2095C104.361 29.6376 103.703 29.9739 102.939 30.2186C102.205 30.4326 101.425 30.5396 100.6 30.5396C100.263 30.5396 99.8809 30.5091 99.4528 30.4479C99.0553 30.3868 98.673 30.3256 98.3061 30.2644C97.9391 30.1727 97.6181 30.0963 97.3429 30.0351C97.0982 29.9434 96.9453 29.8669 96.8842 29.8058Z" fill="#2420FF"/>
<path d="M109.913 35.1265C109.913 34.6678 110.035 34.1785 110.28 33.6587C110.555 33.1389 110.861 32.6496 111.197 32.1909C111.564 31.7322 111.9 31.3347 112.206 30.9983C112.512 30.6314 112.711 30.3868 112.802 30.2644L115.05 27.283C115.57 26.6102 116.028 26.014 116.426 25.4941C116.824 24.9743 117.175 24.5156 117.481 24.1181C117.817 23.69 118.123 23.2924 118.398 22.9255C118.704 22.528 119.01 22.1151 119.316 21.687C119.346 21.6564 119.362 21.6259 119.362 21.5953L119.316 21.6412C119.163 21.6106 118.995 21.5953 118.811 21.5953C118.658 21.5953 118.49 21.5953 118.307 21.5953C117.022 21.5953 115.662 21.7023 114.224 21.9164C112.787 22.1304 111.487 22.268 110.325 22.3292C109.714 22.268 109.24 22.0693 108.904 21.7329C108.567 21.3965 108.399 20.9684 108.399 20.4486C108.399 20.0511 108.46 19.73 108.582 19.4853C108.705 19.2407 108.934 19.0572 109.271 18.9349C109.637 18.782 110.111 18.675 110.692 18.6138C111.304 18.5221 112.068 18.4304 112.986 18.3386L117.206 17.9717H118.215C119.04 17.9717 119.805 18.0023 120.508 18.0634C121.242 18.094 121.869 18.201 122.389 18.3845C122.909 18.5374 123.306 18.7973 123.581 19.1643C123.887 19.5006 124.04 19.9593 124.04 20.5403C123.857 21.1519 123.551 21.8705 123.123 22.6961C122.725 23.4912 122.251 24.3015 121.701 25.1272C121.181 25.9528 120.646 26.7479 120.095 27.5123C119.545 28.2768 119.04 28.9037 118.582 29.3929L115.6 32.7413C115.478 32.8942 115.371 33.0165 115.279 33.1083C115.218 33.2 115.172 33.2612 115.142 33.2918H115.463C115.83 33.3223 116.197 33.3529 116.564 33.3835C116.931 33.3835 117.297 33.3835 117.664 33.3835C118.001 33.3835 118.49 33.3682 119.132 33.3376C119.774 33.307 120.432 33.2612 121.105 33.2C121.808 33.1389 122.465 33.0624 123.077 32.9707C123.688 32.8484 124.117 32.7108 124.361 32.5579C124.514 32.4967 124.667 32.4508 124.82 32.4203C124.973 32.3897 125.126 32.3744 125.279 32.3744C125.707 32.3744 126.104 32.5273 126.471 32.8331C126.838 33.1083 127.022 33.5517 127.022 34.1633C127.022 34.6831 126.792 35.1265 126.334 35.4934C125.905 35.8298 125.34 36.105 124.636 36.3191C123.964 36.5331 123.215 36.7013 122.389 36.8236C121.563 36.9154 120.768 36.9918 120.004 37.053C119.239 37.0835 118.567 37.0988 117.986 37.0988C117.405 37.0988 117.022 37.0988 116.839 37.0988C116.227 37.0988 115.631 37.0988 115.05 37.0988C114.469 37.0683 113.903 37.053 113.353 37.053C113.139 37.0835 112.94 37.1141 112.757 37.1447C112.573 37.1447 112.374 37.1447 112.16 37.1447C111.365 37.1447 110.784 36.9001 110.417 36.4108C110.081 35.9215 109.913 35.4934 109.913 35.1265Z" fill="#2420FF"/>
</svg>
