<svg width="102" height="102" viewBox="0 0 102 102" fill="none" xmlns="http://www.w3.org/2000/svg">
<path d="M98.9367 36.1296C95.9588 40.7878 86.567 53.8535 85.9944 54.6488C85.0781 56.0122 83.7037 56.9211 82.1002 57.1484C80.3822 57.4892 78.5496 57.0347 77.0607 56.0122C74.0828 53.9671 73.1665 49.9906 75.1136 47.1502L77.2897 42.9465L66.1799 47.3775L54.1538 72.0319L60.9113 68.6235C64.5764 66.3512 69.2723 67.4873 71.563 71.123C72.7084 72.8272 73.052 74.9859 72.5938 76.9174C72.1357 78.9624 70.8758 80.6667 69.1578 81.8028C68.127 82.4845 50.3742 94.3005 44.0748 98.1634C36.1719 102.935 26.0929 103.276 17.1592 99.0723C10.0581 95.7775 4.675 89.9831 1.92617 82.8254C-0.822649 75.6676 -0.59358 67.8282 2.38431 60.784L16.5866 30.5624C17.961 27.7221 20.7098 26.1315 23.6877 26.1315C24.833 26.1315 25.8638 26.3587 27.0092 26.8131C28.4981 27.4948 29.6435 28.5174 30.3307 29.7671L32.1632 25.9042C33.0795 23.9728 34.5685 22.6094 36.6301 21.9277C37.5463 21.5869 38.3481 21.4732 39.2644 21.4732C40.2952 21.4732 41.2114 21.7005 42.2422 22.0413L43.6167 21.5869C42.8149 20.9052 42.1277 20.1099 41.6696 19.0873C40.8678 17.3831 40.8678 15.6789 41.555 13.9747C42.2423 12.384 43.3876 11.2479 44.9911 10.6798L68.9287 1.36338C71.4485 0.45446 74.0828 0 76.6025 0C86.1089 0 95.3862 5.68075 99.6239 14.8836C103.06 22.1549 102.716 30.108 98.9367 36.1296ZM37.7754 25.2225C36.7446 25.5634 35.8283 26.3587 35.3702 27.3812L30.9034 36.8113C30.9034 36.9249 30.7888 37.0385 30.7888 37.0385L21.2825 57.0347C20.8243 57.9437 19.7935 58.2845 18.9918 57.8301C18.0755 57.3756 17.7319 56.3531 18.19 55.5578L27.6964 35.5615C28.7272 33.4028 27.8109 30.9033 25.6348 29.8808C23.4586 28.8582 20.9389 29.7671 19.9081 31.9258L5.59127 62.1474C-0.0209084 75.0995 5.70581 89.8695 18.5336 95.8911C26.4365 99.5268 35.2557 99.2995 42.2422 95.0958C48.5416 91.3465 67.0962 78.9624 67.2107 78.8488C68.2415 78.2808 68.8142 77.2582 69.1578 76.1221C69.3869 74.9859 69.1578 73.8498 68.5851 72.8272C68.0125 71.8047 66.9817 71.2366 65.8363 70.8958C64.691 70.6686 63.5456 70.8958 62.5148 71.4639C62.5148 71.4639 62.4003 71.4639 62.4003 71.5775L49.916 77.9399C49.3434 78.2808 48.6562 78.1671 48.0835 77.8263C41.7841 73.3953 31.5906 74.1906 26.322 79.4169C25.6348 80.0986 24.4894 80.0986 23.8022 79.4169C23.115 78.7352 23.115 77.5991 23.8022 76.9174C29.9871 70.7822 41.2114 69.646 48.9998 74.1906L61.0259 49.1953L57.0172 51.1268C55.0701 51.9221 53.0085 51.5812 51.1759 50.5587L45.7928 61.9202C45.3347 62.8291 44.3039 63.17 43.5021 62.7155C42.5859 62.261 42.2422 61.2385 42.7004 60.4432L48.6562 47.9455C48.5416 47.8319 48.5416 47.7183 48.4271 47.4911C47.969 46.4685 47.7399 45.446 47.8544 44.3099L46.1364 44.9916C44.3039 45.6732 42.3568 45.5596 40.6388 44.6507L36.8591 52.6038C36.401 53.5127 35.3702 53.8535 34.5685 53.3991C33.6522 52.9446 33.3086 51.9221 33.7667 51.1268L38.0045 42.1512C37.8899 41.9239 37.7754 41.6967 37.6609 41.3559C36.8591 39.6516 36.8591 37.9474 37.5463 36.2432C38.119 34.9934 39.0353 33.9709 40.1806 33.2892C39.3789 32.6075 38.6917 31.8122 38.2335 30.7897C37.4318 29.0854 37.4318 27.3812 38.119 25.677C38.2336 25.4498 38.3481 25.2225 38.4626 24.9953C38.119 25.1089 38.0045 25.2225 37.7754 25.2225ZM96.5315 16.3606C91.8356 6.24883 80.2676 1.02254 70.1886 4.5446L46.251 13.861C45.5637 14.0883 45.1056 14.6563 44.762 15.338C44.4184 16.0197 44.5329 16.9286 44.8765 17.7239C45.5637 19.3146 47.5108 20.1099 48.9998 19.5418L64.92 13.293C65.8363 12.9521 66.8671 13.4066 67.2107 14.3155C67.5543 15.2244 67.0962 16.247 66.1799 16.5878L50.2597 22.723L50.0306 22.8366C50.0306 22.8366 42.2422 25.9042 42.0132 26.0178C41.555 26.2451 41.326 26.6995 41.0969 27.154C40.7533 27.8357 40.8678 28.7446 41.2114 29.5399C41.555 30.4488 42.3568 31.0169 43.1585 31.3577C43.8457 31.585 61.2549 25.1089 61.2549 25.1089C62.1712 24.7681 63.202 25.2225 63.5456 26.1315C63.8892 27.0404 63.4311 28.0629 62.5148 28.4038L42.0132 36.3568C41.326 36.584 40.8678 37.1521 40.5242 37.8338C40.1806 38.5155 40.2952 39.4244 40.6388 40.2197C40.9824 40.9014 41.4405 41.3559 42.0132 41.8103C42.8149 42.2648 43.8457 42.492 44.762 42.1512L68.5851 32.8347C69.5014 32.4939 70.5322 32.9484 70.8758 33.8573C71.2194 34.7662 70.7613 35.7887 69.845 36.1296L53.123 42.7193C52.3213 43.0601 51.7486 43.6282 51.5195 44.3099C51.1759 44.9916 51.2905 45.7869 51.5195 46.4685C51.7486 47.0366 52.2067 47.4911 52.6649 47.8319C53.5811 48.5136 54.7265 48.7408 55.6428 48.2864L80.2676 38.061C80.9548 37.8338 81.7566 37.9474 82.2147 38.5155C82.6729 39.0836 82.7874 39.8789 82.4438 40.4469C82.4438 40.4469 77.8624 48.9681 77.8624 49.0817C76.9461 50.4451 77.4043 52.2629 78.8932 53.2855C79.5804 53.7399 80.4967 53.9671 81.2984 53.8535C81.9857 53.7399 82.5583 53.2854 83.0165 52.7174C83.131 52.6038 92.8664 38.97 95.8443 34.3117C99.1658 29.3127 99.3949 22.6094 96.5315 16.3606Z" fill="#1A1A1A"/>
</svg>
