<svg width="94" height="93" viewBox="0 0 94 93" fill="none" xmlns="http://www.w3.org/2000/svg">
<path d="M91.177 32.9417C88.4327 37.1889 79.7775 49.1017 79.2497 49.8269C78.4053 51.07 77.1387 51.8987 75.6609 52.1059C74.0777 52.4166 72.3889 52.0023 71.0167 51.07C68.2724 49.2053 67.428 45.5797 69.2223 42.9899L71.2278 39.1571L60.9893 43.1971L49.9065 65.6762L56.134 62.5685C59.5116 60.4967 63.8392 61.5326 65.9502 64.8474C67.0058 66.4013 67.3224 68.3695 66.9002 70.1305C66.478 71.9952 65.3169 73.549 63.7337 74.5849C62.7837 75.2065 46.4233 85.9798 40.618 89.5019C33.3349 93.8527 24.0464 94.1635 15.8134 90.3306C9.26924 87.3265 4.30833 82.0434 1.7751 75.5172C-0.758127 68.9911 -0.547025 61.8433 2.19731 55.4207L15.2857 27.8658C16.5523 25.276 19.0855 23.8257 21.8298 23.8257C22.8853 23.8257 23.8353 24.0329 24.8908 24.4473C26.263 25.0688 27.3185 26.0011 27.9518 27.1406L29.6406 23.6186C30.485 21.8575 31.8572 20.6144 33.7571 19.9929C34.6015 19.6821 35.3404 19.5786 36.1848 19.5786C37.1348 19.5786 37.9792 19.7857 38.9291 20.0965L40.1958 19.6821C39.4569 19.0606 38.8236 18.3355 38.4014 17.4032C37.6625 15.8493 37.6625 14.2954 38.2958 12.7416C38.9291 11.2913 39.9846 10.2554 41.4624 9.73747L63.5226 1.24308C65.8447 0.41436 68.2724 0 70.5945 0C79.3552 0 87.9049 5.17951 91.8103 13.5703C94.9768 20.2001 94.6602 27.4514 91.177 32.9417ZM34.8126 22.997C33.8627 23.3078 33.0183 24.0329 32.5961 24.9652L28.4796 33.5632C28.4796 33.6668 28.374 33.7704 28.374 33.7704L19.6133 52.0023C19.1911 52.831 18.2411 53.1418 17.5022 52.7274C16.6578 52.313 16.3412 51.3807 16.7634 50.6556L25.5241 32.4237C26.4741 30.4555 25.6297 28.1765 23.6242 27.2442C21.6187 26.3119 19.2966 27.1406 18.3466 29.1088L5.15274 56.6638C-0.0192686 68.4731 5.25829 81.9398 17.08 87.4301C24.3631 90.745 32.4905 90.5378 38.9291 86.705C44.7344 83.2865 61.8337 71.9952 61.9393 71.8916C62.8893 71.3736 63.417 70.4413 63.7337 69.4054C63.9448 68.3695 63.7337 67.3336 63.2059 66.4013C62.6782 65.469 61.7282 64.951 60.6727 64.6403C59.6172 64.4331 58.5617 64.6403 57.6117 65.1582C57.6117 65.1582 57.5062 65.1582 57.5062 65.2618L46.0011 71.0629C45.4733 71.3736 44.84 71.27 44.3122 70.9593C38.5069 66.9193 29.1129 67.6444 24.2575 72.4095C23.6242 73.0311 22.5687 73.0311 21.9354 72.4095C21.3021 71.788 21.3021 70.7521 21.9354 70.1305C27.6352 64.5367 37.9792 63.5008 45.1567 67.6444L56.2395 44.8545L52.5452 46.6156C50.7509 47.3407 48.8509 47.0299 47.1621 46.0976L42.2012 56.4566C41.779 57.2854 40.8291 57.5961 40.0902 57.1818C39.2458 56.7674 38.9291 55.8351 39.3513 55.11L44.84 43.7151C44.7344 43.6115 44.7345 43.5079 44.6289 43.3007C44.2067 42.3684 43.9956 41.4361 44.1011 40.4002L42.5179 41.0217C40.8291 41.6432 39.0347 41.5397 37.4514 40.7109L33.9682 47.9622C33.546 48.791 32.5961 49.1017 31.8572 48.6874C31.0128 48.273 30.6961 47.3407 31.1183 46.6156L35.0237 38.4319C34.9182 38.2248 34.8126 38.0176 34.7071 37.7068C33.9682 36.153 33.9682 34.5991 34.6015 33.0453C35.1293 31.9058 35.9737 30.9735 37.0292 30.3519C36.2904 29.7304 35.657 29.0052 35.2348 28.0729C34.496 26.5191 34.496 24.9652 35.1293 23.4114C35.2348 23.2042 35.3404 22.997 35.4459 22.7898C35.1293 22.8934 35.0237 22.997 34.8126 22.997ZM88.9604 14.917C84.6328 5.69746 73.9721 0.932312 64.6836 4.14361L42.6234 12.638C41.9901 12.8452 41.5679 13.3631 41.2513 13.9847C40.9346 14.6062 41.0402 15.4349 41.3568 16.1601C41.9901 17.6103 43.7845 18.3355 45.1567 17.8175L59.8283 12.12C60.6727 11.8093 61.6226 12.2236 61.9393 13.0524C62.256 13.8811 61.8337 14.8134 60.9893 15.1242L46.3177 20.718L46.1066 20.8216C46.1066 20.8216 38.9291 23.6186 38.718 23.7221C38.2958 23.9293 38.0847 24.3437 37.8736 24.758C37.557 25.3796 37.6625 26.2083 37.9792 26.9334C38.2958 27.7622 39.0347 28.2801 39.7735 28.5909C40.4068 28.7981 56.4506 22.8934 56.4506 22.8934C57.295 22.5827 58.245 22.997 58.5617 23.8257C58.8783 24.6545 58.4561 25.5868 57.6117 25.8975L38.718 33.1489C38.0847 33.356 37.6625 33.874 37.3459 34.4955C37.0292 35.1171 37.1348 35.9458 37.4514 36.6709C37.7681 37.2925 38.1903 37.7068 38.718 38.1212C39.4569 38.5355 40.4068 38.7427 41.2513 38.4319L63.2059 29.9376C64.0503 29.6268 65.0003 30.0412 65.3169 30.8699C65.6336 31.6986 65.2114 32.6309 64.367 32.9417L48.9565 38.9499C48.2176 39.2607 47.6899 39.7786 47.4788 40.4002C47.1621 41.0217 47.2677 41.7468 47.4788 42.3684C47.6899 42.8863 48.1121 43.3007 48.5343 43.6115C49.3787 44.233 50.4342 44.4402 51.2786 44.0258L73.9721 34.7027C74.6054 34.4955 75.3443 34.5991 75.7665 35.1171C76.1887 35.635 76.2943 36.3601 75.9776 36.8781C75.9776 36.8781 71.7556 44.6474 71.7556 44.751C70.9112 45.994 71.3334 47.6515 72.7055 48.5838C73.3388 48.9982 74.1832 49.2053 74.9221 49.1017C75.5554 48.9982 76.0832 48.5838 76.5054 48.0658C76.6109 47.9622 85.5828 35.5314 88.3271 31.2842C91.3881 26.7263 91.5992 20.6144 88.9604 14.917Z" fill="white"/>
</svg>
